<?xml version="1.0" encoding="utf-8"?>
<!-- Generator: Adobe Illustrator 27.5.0, SVG Export Plug-In . SVG Version: 6.00 Build 0)  -->
<svg version="1.1" xmlns="http://www.w3.org/2000/svg" xmlns:xlink="http://www.w3.org/1999/xlink" x="0px" y="0px"
	 viewBox="0 0 750 500" style="enable-background:new 0 0 750 500;" xml:space="preserve">
<g id="Background_Simple">
	<g>
		<path style="fill:#92E3A9;" d="M735.11,238.322c-7.007-79.009-57.517-146.21-134.167-175.141
			c-20.153-7.606-41.963-12.701-64.296-12.764c-91.273-0.259-206.493,49.832-263.876,56.758
			c-57.384,6.926-116.266-51.804-200.401,19.611c-84.135,71.415-90.107,256.966,53.632,308.919s237.411-27.793,300.831-1.322
			c63.421,26.471,182.372,30.846,259.192-18.9C731.576,385.985,741.191,306.894,735.11,238.322z"/>
		<path style="opacity:0.8;fill:#FFFFFF;" d="M735.11,238.322c-7.007-79.009-57.517-146.21-134.167-175.141
			c-20.153-7.606-41.963-12.701-64.296-12.764c-91.273-0.259-206.493,49.832-263.876,56.758
			c-57.384,6.926-116.266-51.804-200.401,19.611c-84.135,71.415-90.107,256.966,53.632,308.919s237.411-27.793,300.831-1.322
			c63.421,26.471,182.372,30.846,259.192-18.9C731.576,385.985,741.191,306.894,735.11,238.322z"/>
	</g>
</g>
<g id="Floor">
	<g>
		<line style="fill:none;stroke:#263238;stroke-miterlimit:10;" x1="668.525" y1="454.84" x2="697.407" y2="454.84"/>
		<line style="fill:none;stroke:#263238;stroke-miterlimit:10;" x1="55.323" y1="454.84" x2="662.6" y2="454.84"/>
	</g>
</g>
<g id="Plants">
	<g>
		<g>
			<path style="fill:#263238;" d="M61.599,405.222c1.689,0.737,5.819,0.644,5.822,0.644c0.043-0.001-0.888-2.704-0.966-2.868
				c-0.906-1.896-3.772-5.026-6.104-4.711c-1.68,0.227-2.614,1.908-2.235,3.49C58.504,403.394,60.161,404.594,61.599,405.222z"/>
			<path style="fill:#263238;" d="M63.025,417.186c1.752,0.255,5.438-0.813,5.731-0.9c0.582,2.064,1.347,4.134,2.236,6.186
				c0.507,1.174,1.054,2.341,1.618,3.503c-0.336-0.492-0.641-0.93-0.689-0.987c-1.375-1.59-4.966-3.851-7.131-2.931
				c-1.561,0.662-2.018,2.53-1.234,3.956c0.8,1.456,2.716,2.176,4.269,2.402c1.576,0.23,4.737-0.618,5.571-0.854
				c0.221,0.444,0.436,0.889,0.659,1.332c1.068,2.126,2.142,4.242,3.132,6.35c0.349,0.743,0.666,1.487,0.986,2.231
				c-0.299-0.437-0.555-0.803-0.599-0.855c-1.375-1.589-4.965-3.851-7.131-2.931c-1.561,0.663-2.018,2.531-1.234,3.956
				c0.801,1.456,2.716,2.176,4.269,2.402c1.504,0.219,4.428-0.537,5.42-0.813c0.304,0.771,0.611,1.543,0.871,2.304
				c0.166,0.524,0.362,1.016,0.499,1.552c0.147,0.527,0.293,1.049,0.437,1.566c0.241,1.005,0.497,2.041,0.707,3.028
				c0.152,0.685,0.284,1.341,0.419,2.001c-0.339-0.743-1.034-2.185-1.105-2.299c-1.118-1.779-4.324-4.559-6.605-3.978
				c-1.643,0.419-2.378,2.196-1.818,3.724c0.57,1.56,2.354,2.562,3.855,3.021c1.653,0.505,5.311,0.044,5.768-0.017
				c0.219,1.093,0.422,2.158,0.597,3.167c0.094,0.534,0.176,1.035,0.258,1.539h1.455c-0.107-0.581-0.22-1.175-0.343-1.795
				c-0.218-1.111-0.473-2.293-0.747-3.506c0.275-0.109,1.835-0.74,3.218-1.513c1.204,1.304,4.29,2.831,4.69,3.025
				c-0.42,1.033-0.838,2.033-1.249,2.971c-0.123,0.284-0.242,0.548-0.363,0.818h1.533c0.038-0.092,0.076-0.181,0.115-0.276
				c0.431-1.047,0.871-2.174,1.311-3.336c0.443,0.093,4.064,0.828,5.752,0.447c1.531-0.346,3.385-1.212,4.07-2.726
				c0.671-1.481,0.07-3.309-1.537-3.848c-2.23-0.749-5.635,1.784-6.883,3.475c-0.074,0.1-0.751,1.271-1.166,2.017
				c0.177-0.476,0.355-0.935,0.531-1.427c0.356-0.97,0.683-1.949,1.038-3.001c0.154-0.514,0.309-1.033,0.466-1.557
				c0.166-0.517,0.277-1.084,0.419-1.63c0.304-1.274,0.549-2.579,0.767-3.9c0.85,0.309,3.886,1.366,5.459,1.255
				c1.566-0.11,3.529-0.685,4.436-2.077c0.888-1.363,0.571-3.26-0.936-4.038c-2.092-1.078-5.841,0.91-7.33,2.392
				c-0.093,0.092-1.042,1.276-1.551,1.936c0.125-0.795,0.253-1.587,0.354-2.396c0.29-2.333,0.51-4.704,0.741-7.068
				c0.07-0.724,0.149-1.445,0.225-2.167c0.302,0.114,3.883,1.447,5.644,1.323c1.565-0.109,3.53-0.685,4.436-2.077
				c0.888-1.363,0.571-3.26-0.936-4.037c-2.091-1.079-5.841,0.91-7.33,2.392c-0.112,0.112-1.476,1.817-1.801,2.268
				c0.168-1.59,0.35-3.172,0.593-4.725c0.332-2.143,0.777-4.227,1.356-6.214c0.14,0.053,3.872,1.461,5.676,1.335
				c1.566-0.11,3.53-0.685,4.436-2.077c0.888-1.363,0.571-3.26-0.936-4.037c-2.091-1.079-5.84,0.91-7.33,2.392
				c-0.117,0.117-1.582,1.952-1.825,2.304c0.035-0.118,0.058-0.244,0.094-0.362c0.646-2.114,1.537-4.08,2.462-5.88
				c0.535-1.047,1.105-2.018,1.681-2.95c0.668,0.334,3.738,1.824,5.374,1.89c1.568,0.063,3.584-0.293,4.637-1.577
				c1.032-1.257,0.926-3.178-0.486-4.116c-1.961-1.302-5.905,0.263-7.549,1.573c-0.089,0.071-0.917,0.896-1.512,1.505
				c0.266-0.417,0.533-0.852,0.796-1.246c0.984-1.482,1.977-2.779,2.866-3.921c0.51-0.645,0.985-1.218,1.435-1.75
				c0.826-0.014,4.156-0.115,5.612-0.799c1.42-0.667,3.045-1.911,3.389-3.537c0.336-1.592-0.643-3.247-2.329-3.428
				c-2.34-0.252-5.12,2.954-5.975,4.874c-0.073,0.166-0.931,2.893-0.888,2.893c0,0,0.04,0,0.05-0.001
				c-0.443,0.503-0.912,1.047-1.412,1.652c-0.915,1.124-1.939,2.403-2.959,3.87c-1.024,1.463-2.094,3.082-3.069,4.888
				c-0.979,1.809-1.916,3.763-2.621,5.901c-0.008,0.024-0.013,0.05-0.021,0.074c0.012-0.689-0.018-2.618-0.037-2.765
				c-0.27-2.084-2.017-5.952-4.331-6.38c-1.667-0.308-3.079,0.998-3.212,2.619c-0.135,1.656,1.065,3.313,2.236,4.358
				c1.32,1.179,4.984,2.321,5.276,2.411c-0.653,2.042-1.157,4.19-1.548,6.392c-0.225,1.259-0.412,2.534-0.583,3.815
				c-0.009-0.596-0.021-1.13-0.031-1.204c-0.27-2.084-2.017-5.951-4.331-6.379c-1.667-0.309-3.079,0.998-3.211,2.619
				c-0.136,1.656,1.065,3.313,2.235,4.358c1.188,1.061,4.292,2.097,5.117,2.36c-0.06,0.492-0.127,0.983-0.185,1.475
				c-0.282,2.361-0.553,4.719-0.891,7.024c-0.118,0.812-0.265,1.607-0.408,2.404c-0.008-0.529-0.02-0.975-0.029-1.043
				c-0.27-2.084-2.017-5.952-4.33-6.38c-1.667-0.308-3.079,0.998-3.212,2.619c-0.136,1.655,1.065,3.313,2.236,4.358
				c1.133,1.013,3.99,1.995,4.969,2.312c-0.172,0.811-0.342,1.624-0.545,2.403c-0.151,0.528-0.259,1.047-0.44,1.57
				c-0.168,0.52-0.335,1.036-0.499,1.547c-0.354,0.972-0.712,1.976-1.081,2.915c-0.251,0.655-0.503,1.275-0.755,1.9
				c0.127-0.807,0.343-2.392,0.346-2.527c0.032-1.396-0.464-3.665-1.45-5.26c0.006-0.206-0.006-0.412-0.038-0.616
				c-0.258-1.606-1.767-2.799-3.405-2.362c-2.274,0.605-3.716,4.597-3.824,6.695c-0.006,0.124,0.075,1.475,0.14,2.326
				c-0.115-0.495-0.22-0.976-0.344-1.484c-0.239-1.006-0.506-2.002-0.79-3.076c-0.155-0.513-0.312-1.032-0.471-1.556
				c-0.146-0.522-0.367-1.056-0.549-1.59c-0.45-1.23-0.965-2.454-1.512-3.676c0.881-0.211,3.995-1.005,5.246-1.965
				c1.245-0.955,2.566-2.519,2.554-4.179c-0.012-1.627-1.322-3.034-3.007-2.851c-2.34,0.254-4.37,3.981-4.795,6.039
				c-0.026,0.128-0.165,1.639-0.225,2.471c-0.334-0.732-0.664-1.464-1.027-2.193c-1.045-2.106-2.169-4.205-3.281-6.304
				c-0.341-0.643-0.673-1.287-1.008-1.931c0.314-0.072,4.037-0.936,5.438-2.01c1.245-0.955,2.566-2.518,2.554-4.18
				c-0.012-1.626-1.322-3.034-3.007-2.851c-2.34,0.254-4.37,3.981-4.795,6.039c-0.032,0.155-0.228,2.329-0.251,2.884
				c-0.737-1.418-1.458-2.838-2.112-4.268c-0.905-1.97-1.684-3.954-2.297-5.931c0.147-0.033,4.036-0.917,5.471-2.018
				c1.245-0.955,2.566-2.518,2.554-4.18c-0.011-1.626-1.322-3.034-3.008-2.851c-2.339,0.254-4.369,3.981-4.794,6.039
				c-0.033,0.162-0.243,2.501-0.251,2.927c-0.036-0.117-0.087-0.235-0.122-0.353c-0.627-2.12-0.969-4.252-1.19-6.263
				c-0.131-1.168-0.191-2.293-0.225-3.388c0.741-0.091,4.124-0.541,5.525-1.389c1.343-0.813,2.827-2.222,2.998-3.874
				c0.167-1.618-0.981-3.161-2.676-3.164c-2.353-0.005-4.78,3.477-5.428,5.476c-0.035,0.109-0.271,1.253-0.431,2.09
				c-0.007-0.495-0.025-1.005-0.023-1.479c0.003-1.779,0.116-3.409,0.227-4.851c0.07-0.82,0.149-1.559,0.231-2.25
				c0.681-0.468,3.402-2.389,4.239-3.763c0.817-1.34,1.485-3.274,0.875-4.819c-0.597-1.513-2.327-2.354-3.833-1.575
				c-2.091,1.081-2.64,5.289-2.295,7.362c0.03,0.179,0.82,2.926,0.856,2.903c0,0,0.033-0.023,0.041-0.028
				c-0.092,0.663-0.183,1.376-0.266,2.157c-0.144,1.443-0.292,3.074-0.333,4.86c-0.047,1.785-0.047,3.726,0.137,5.77
				c0.182,2.049,0.478,4.195,1.069,6.367c0.007,0.025,0.017,0.049,0.024,0.074c-0.37-0.582-1.46-2.173-1.557-2.286
				c-1.375-1.589-4.965-3.851-7.131-2.932c-1.56,0.663-2.018,2.531-1.234,3.957C59.557,416.24,61.472,416.96,63.025,417.186z"/>
			<path style="fill:#263238;" d="M103.377,406.13c0.036,0.023,0.751-2.745,0.776-2.925c0.29-2.081-0.374-6.273-2.493-7.297
				c-1.526-0.737-3.233,0.15-3.789,1.678c-0.568,1.561,0.152,3.476,1.005,4.794C99.878,403.928,103.375,406.129,103.377,406.13z"/>
		</g>
	</g>
	<g>
		<g>
			<path style="fill:#263238;" d="M610.693,412.726c1.433,0.626,4.939,0.547,4.942,0.547c0.036-0.001-0.754-2.295-0.82-2.434
				c-0.769-1.609-3.202-4.266-5.181-3.999c-1.426,0.193-2.219,1.62-1.897,2.962C608.066,411.174,609.472,412.193,610.693,412.726z"
				/>
			<path style="fill:#263238;" d="M611.903,422.881c1.487,0.217,4.615-0.69,4.864-0.764c0.494,1.751,1.143,3.509,1.898,5.25
				c0.43,0.997,0.895,1.987,1.373,2.974c-0.285-0.418-0.544-0.79-0.585-0.838c-1.167-1.349-4.215-3.269-6.053-2.488
				c-1.325,0.562-1.712,2.148-1.047,3.358c0.679,1.235,2.305,1.847,3.623,2.039c1.338,0.195,4.02-0.525,4.728-0.725
				c0.187,0.377,0.37,0.755,0.559,1.131c0.906,1.804,1.818,3.6,2.658,5.389c0.297,0.63,0.565,1.262,0.837,1.893
				c-0.254-0.371-0.471-0.682-0.509-0.726c-1.167-1.349-4.214-3.269-6.053-2.488c-1.324,0.562-1.712,2.148-1.047,3.358
				c0.68,1.236,2.305,1.847,3.623,2.039c1.276,0.186,3.759-0.456,4.6-0.69c0.258,0.655,0.518,1.31,0.739,1.956
				c0.141,0.445,0.308,0.863,0.424,1.317c0.125,0.447,0.248,0.89,0.371,1.329c0.205,0.853,0.421,1.732,0.6,2.57
				c0.129,0.582,0.241,1.138,0.356,1.699c-0.288-0.631-0.877-1.854-0.938-1.951c-0.949-1.51-3.67-3.869-5.606-3.376
				c-1.394,0.355-2.018,1.864-1.544,3.16c0.484,1.324,1.998,2.175,3.272,2.564c1.403,0.429,4.508,0.037,4.895-0.015
				c0.186,0.928,0.358,1.832,0.507,2.688c0.08,0.453,0.149,0.878,0.219,1.306h1.235c-0.091-0.493-0.187-0.997-0.291-1.524
				c-0.185-0.943-0.402-1.947-0.634-2.976c0.234-0.093,1.558-0.628,2.731-1.284c1.022,1.107,3.641,2.403,3.981,2.567
				c-0.356,0.877-0.712,1.726-1.06,2.522c-0.105,0.241-0.206,0.465-0.308,0.695h1.301c0.033-0.078,0.065-0.154,0.097-0.234
				c0.366-0.889,0.739-1.846,1.113-2.832c0.376,0.079,3.449,0.703,4.882,0.38c1.299-0.294,2.873-1.029,3.455-2.314
				c0.57-1.257,0.06-2.808-1.305-3.266c-1.893-0.636-4.783,1.514-5.842,2.949c-0.063,0.085-0.638,1.079-0.99,1.712
				c0.15-0.404,0.301-0.794,0.451-1.212c0.303-0.823,0.58-1.654,0.881-2.547c0.13-0.436,0.262-0.877,0.396-1.322
				c0.141-0.438,0.235-0.92,0.356-1.383c0.258-1.081,0.466-2.189,0.651-3.31c0.722,0.262,3.298,1.159,4.633,1.065
				c1.329-0.093,2.995-0.581,3.765-1.763c0.754-1.157,0.485-2.767-0.794-3.427c-1.775-0.915-4.957,0.773-6.222,2.031
				c-0.079,0.078-0.884,1.083-1.316,1.643c0.106-0.675,0.215-1.347,0.3-2.033c0.246-1.98,0.433-3.992,0.629-5.999
				c0.06-0.615,0.126-1.227,0.191-1.839c0.256,0.096,3.295,1.228,4.791,1.123c1.329-0.093,2.996-0.581,3.765-1.763
				c0.753-1.156,0.485-2.767-0.794-3.426c-1.775-0.916-4.957,0.772-6.221,2.03c-0.095,0.095-1.252,1.542-1.529,1.925
				c0.142-1.349,0.297-2.692,0.503-4.01c0.282-1.819,0.659-3.588,1.151-5.274c0.119,0.045,3.286,1.24,4.818,1.133
				c1.329-0.094,2.996-0.582,3.765-1.763c0.753-1.156,0.485-2.767-0.794-3.426c-1.775-0.915-4.957,0.772-6.221,2.03
				c-0.099,0.099-1.343,1.656-1.549,1.955c0.03-0.1,0.049-0.207,0.08-0.307c0.548-1.794,1.305-3.463,2.09-4.991
				c0.454-0.889,0.938-1.713,1.427-2.504c0.567,0.283,3.173,1.548,4.562,1.604c1.331,0.053,3.042-0.249,3.936-1.339
				c0.876-1.067,0.786-2.697-0.413-3.493c-1.664-1.105-5.012,0.223-6.407,1.335c-0.076,0.06-0.779,0.76-1.283,1.277
				c0.226-0.354,0.453-0.723,0.676-1.057c0.836-1.258,1.678-2.359,2.432-3.328c0.433-0.547,0.836-1.034,1.218-1.485
				c0.701-0.012,3.527-0.098,4.763-0.678c1.205-0.566,2.585-1.622,2.876-3.002c0.285-1.351-0.546-2.756-1.976-2.91
				c-1.986-0.214-4.346,2.507-5.071,4.137c-0.063,0.141-0.79,2.456-0.753,2.455c0,0,0.034,0,0.042,0
				c-0.376,0.427-0.774,0.888-1.199,1.402c-0.777,0.954-1.646,2.04-2.512,3.284c-0.869,1.242-1.778,2.616-2.605,4.149
				c-0.831,1.536-1.626,3.194-2.225,5.008c-0.007,0.021-0.011,0.043-0.018,0.063c0.011-0.585-0.015-2.222-0.032-2.347
				c-0.229-1.769-1.711-5.052-3.676-5.415c-1.415-0.261-2.613,0.847-2.726,2.223c-0.115,1.405,0.904,2.811,1.897,3.699
				c1.12,1.001,4.23,1.97,4.478,2.046c-0.555,1.733-0.982,3.557-1.314,5.426c-0.191,1.069-0.349,2.151-0.495,3.238
				c-0.008-0.506-0.018-0.959-0.026-1.022c-0.229-1.769-1.712-5.051-3.676-5.414c-1.415-0.262-2.613,0.847-2.726,2.223
				c-0.115,1.405,0.904,2.812,1.897,3.699c1.008,0.9,3.643,1.78,4.343,2.004c-0.051,0.417-0.107,0.834-0.157,1.252
				c-0.24,2.004-0.47,4.005-0.756,5.961c-0.1,0.689-0.225,1.364-0.347,2.04c-0.007-0.449-0.017-0.828-0.024-0.885
				c-0.229-1.769-1.712-5.052-3.675-5.415c-1.416-0.261-2.614,0.847-2.727,2.223c-0.115,1.405,0.904,2.812,1.898,3.699
				c0.962,0.859,3.387,1.693,4.218,1.963c-0.146,0.689-0.29,1.378-0.463,2.039c-0.128,0.448-0.22,0.889-0.373,1.332
				c-0.143,0.442-0.284,0.88-0.424,1.313c-0.3,0.825-0.605,1.677-0.918,2.474c-0.213,0.556-0.427,1.082-0.641,1.612
				c0.108-0.685,0.291-2.031,0.294-2.145c0.027-1.185-0.393-3.111-1.231-4.465c0.005-0.175-0.005-0.349-0.033-0.523
				c-0.219-1.363-1.5-2.376-2.89-2.005c-1.93,0.514-3.154,3.902-3.245,5.682c-0.005,0.105,0.063,1.252,0.119,1.974
				c-0.098-0.42-0.186-0.828-0.292-1.259c-0.203-0.854-0.43-1.699-0.671-2.611c-0.132-0.436-0.265-0.876-0.4-1.321
				c-0.124-0.443-0.311-0.896-0.466-1.35c-0.382-1.043-0.819-2.083-1.283-3.12c0.747-0.179,3.391-0.853,4.452-1.668
				c1.057-0.811,2.178-2.138,2.168-3.547c-0.01-1.381-1.122-2.576-2.552-2.42c-1.986,0.216-3.709,3.379-4.069,5.125
				c-0.022,0.109-0.14,1.391-0.191,2.097c-0.284-0.621-0.564-1.243-0.872-1.862c-0.887-1.788-1.841-3.569-2.785-5.35
				c-0.289-0.546-0.571-1.092-0.855-1.639c0.267-0.061,3.426-0.794,4.615-1.706c1.057-0.811,2.178-2.138,2.168-3.548
				c-0.01-1.38-1.122-2.575-2.553-2.42c-1.986,0.215-3.709,3.379-4.069,5.125c-0.027,0.132-0.193,1.977-0.213,2.448
				c-0.625-1.204-1.237-2.409-1.793-3.622c-0.768-1.673-1.429-3.356-1.949-5.034c0.124-0.028,3.425-0.779,4.643-1.713
				c1.057-0.811,2.178-2.138,2.168-3.548c-0.01-1.381-1.122-2.575-2.553-2.42c-1.985,0.216-3.709,3.379-4.069,5.125
				c-0.028,0.137-0.206,2.123-0.213,2.485c-0.031-0.1-0.074-0.2-0.103-0.299c-0.532-1.799-0.822-3.609-1.01-5.316
				c-0.112-0.992-0.162-1.946-0.191-2.875c0.629-0.077,3.501-0.459,4.689-1.179c1.14-0.69,2.4-1.885,2.544-3.288
				c0.142-1.373-0.833-2.683-2.271-2.686c-1.997-0.004-4.057,2.951-4.607,4.647c-0.03,0.092-0.23,1.064-0.366,1.773
				c-0.006-0.42-0.021-0.853-0.019-1.255c0.003-1.51,0.098-2.894,0.193-4.117c0.059-0.696,0.127-1.324,0.196-1.91
				c0.578-0.397,2.888-2.028,3.598-3.193c0.693-1.137,1.26-2.779,0.743-4.09c-0.507-1.284-1.975-1.997-3.253-1.337
				c-1.775,0.917-2.241,4.489-1.948,6.248c0.026,0.152,0.696,2.484,0.726,2.464c0,0,0.028-0.019,0.035-0.024
				c-0.078,0.563-0.155,1.168-0.226,1.831c-0.122,1.224-0.248,2.609-0.283,4.125c-0.039,1.515-0.04,3.162,0.117,4.897
				c0.154,1.739,0.405,3.561,0.907,5.404c0.006,0.021,0.014,0.042,0.02,0.063c-0.314-0.494-1.239-1.845-1.322-1.94
				c-1.167-1.349-4.214-3.269-6.053-2.488c-1.324,0.563-1.713,2.148-1.047,3.358C608.96,422.078,610.585,422.689,611.903,422.881z"
				/>
			<path style="fill:#263238;" d="M646.152,413.497c0.031,0.019,0.638-2.33,0.659-2.483c0.246-1.766-0.317-5.324-2.116-6.193
				c-1.296-0.626-2.744,0.127-3.216,1.425c-0.482,1.325,0.129,2.95,0.853,4.068C643.182,411.628,646.15,413.496,646.152,413.497z"/>
		</g>
	</g>
	<g>
		<g>
			<path style="fill:#263238;" d="M690.845,430.415c-0.831,0.363-2.865,0.317-2.866,0.317c-0.021-0.001,0.437-1.331,0.476-1.412
				c0.446-0.933,1.857-2.474,3.005-2.319c0.827,0.112,1.287,0.939,1.1,1.718C692.369,429.515,691.553,430.105,690.845,430.415z"/>
			<path style="fill:#263238;" d="M690.143,436.304c-0.862,0.126-2.677-0.4-2.821-0.443c-0.287,1.016-0.663,2.035-1.101,3.045
				c-0.25,0.578-0.519,1.152-0.796,1.725c0.166-0.242,0.315-0.458,0.339-0.486c0.677-0.782,2.445-1.896,3.51-1.443
				c0.768,0.326,0.993,1.246,0.608,1.948c-0.394,0.716-1.337,1.071-2.101,1.182c-0.776,0.113-2.332-0.305-2.742-0.421
				c-0.109,0.219-0.215,0.438-0.324,0.656c-0.525,1.046-1.054,2.088-1.542,3.126c-0.172,0.366-0.328,0.732-0.485,1.098
				c0.147-0.215,0.273-0.395,0.295-0.421c0.677-0.782,2.444-1.896,3.51-1.443c0.768,0.326,0.993,1.246,0.607,1.947
				c-0.394,0.717-1.337,1.071-2.101,1.182c-0.74,0.108-2.18-0.264-2.668-0.4c-0.15,0.38-0.301,0.76-0.429,1.134
				c-0.082,0.258-0.178,0.5-0.246,0.764c-0.073,0.259-0.144,0.516-0.215,0.771c-0.119,0.495-0.244,1.005-0.348,1.49
				c-0.075,0.337-0.14,0.66-0.206,0.985c0.167-0.366,0.509-1.076,0.544-1.132c0.55-0.876,2.129-2.244,3.251-1.958
				c0.809,0.206,1.17,1.081,0.895,1.833c-0.281,0.768-1.159,1.261-1.898,1.487c-0.814,0.248-2.614,0.021-2.839-0.009
				c-0.108,0.538-0.208,1.063-0.294,1.559c-0.046,0.263-0.086,0.51-0.127,0.758h-0.716c0.053-0.286,0.108-0.578,0.169-0.884
				c0.107-0.547,0.233-1.129,0.368-1.726c-0.135-0.054-0.904-0.365-1.584-0.745c-0.593,0.642-2.112,1.393-2.309,1.489
				c0.207,0.509,0.413,1.001,0.615,1.463c0.061,0.14,0.119,0.27,0.179,0.403h-0.755c-0.019-0.045-0.037-0.089-0.057-0.136
				c-0.212-0.515-0.429-1.07-0.645-1.642c-0.218,0.046-2.001,0.408-2.832,0.22c-0.753-0.17-1.666-0.597-2.004-1.342
				c-0.33-0.729-0.035-1.629,0.757-1.895c1.098-0.369,2.774,0.878,3.388,1.711c0.036,0.049,0.37,0.626,0.574,0.993
				c-0.087-0.234-0.175-0.461-0.262-0.703c-0.175-0.478-0.336-0.96-0.511-1.477c-0.076-0.253-0.152-0.509-0.229-0.767
				c-0.082-0.254-0.136-0.534-0.206-0.802c-0.149-0.627-0.27-1.27-0.377-1.92c-0.419,0.152-1.913,0.672-2.687,0.618
				c-0.771-0.054-1.737-0.337-2.183-1.023c-0.437-0.671-0.281-1.605,0.461-1.987c1.03-0.531,2.875,0.448,3.608,1.178
				c0.046,0.045,0.513,0.628,0.763,0.953c-0.062-0.391-0.125-0.781-0.174-1.179c-0.143-1.148-0.251-2.316-0.365-3.479
				c-0.035-0.357-0.073-0.711-0.111-1.067c-0.148,0.056-1.911,0.712-2.779,0.651c-0.771-0.054-1.737-0.337-2.184-1.023
				c-0.437-0.671-0.281-1.605,0.461-1.987c1.029-0.531,2.875,0.448,3.608,1.177c0.055,0.055,0.726,0.894,0.886,1.116
				c-0.083-0.783-0.172-1.562-0.292-2.326c-0.163-1.055-0.382-2.081-0.668-3.059c-0.069,0.026-1.906,0.719-2.794,0.657
				c-0.771-0.054-1.737-0.337-2.184-1.023c-0.437-0.671-0.281-1.605,0.461-1.987c1.03-0.531,2.875,0.448,3.608,1.177
				c0.057,0.057,0.779,0.961,0.898,1.134c-0.017-0.058-0.029-0.12-0.046-0.178c-0.318-1.04-0.757-2.008-1.212-2.895
				c-0.263-0.516-0.544-0.994-0.828-1.452c-0.329,0.164-1.84,0.898-2.646,0.93c-0.772,0.031-1.764-0.144-2.283-0.776
				c-0.508-0.619-0.456-1.564,0.239-2.026c0.965-0.641,2.907,0.129,3.716,0.774c0.044,0.035,0.451,0.441,0.744,0.741
				c-0.131-0.205-0.262-0.419-0.392-0.613c-0.485-0.73-0.973-1.368-1.411-1.93c-0.251-0.317-0.485-0.6-0.706-0.861
				c-0.407-0.007-2.046-0.057-2.762-0.393c-0.699-0.329-1.499-0.941-1.668-1.741c-0.166-0.784,0.316-1.598,1.146-1.688
				c1.152-0.124,2.52,1.454,2.941,2.399c0.036,0.082,0.458,1.424,0.437,1.424c0,0-0.02,0-0.024,0
				c0.218,0.247,0.449,0.515,0.695,0.813c0.451,0.553,0.954,1.183,1.457,1.905c0.504,0.72,1.031,1.517,1.511,2.406
				c0.482,0.891,0.943,1.852,1.29,2.905c0.004,0.012,0.007,0.025,0.011,0.037c-0.006-0.339,0.009-1.289,0.018-1.361
				c0.133-1.026,0.993-2.93,2.132-3.141c0.82-0.152,1.516,0.491,1.581,1.289c0.067,0.815-0.524,1.631-1.1,2.145
				c-0.65,0.581-2.454,1.143-2.597,1.187c0.322,1.005,0.57,2.063,0.762,3.147c0.111,0.62,0.203,1.247,0.287,1.878
				c0.004-0.294,0.01-0.556,0.015-0.593c0.133-1.026,0.993-2.93,2.132-3.14c0.821-0.152,1.516,0.491,1.581,1.289
				c0.067,0.815-0.524,1.631-1.1,2.145c-0.585,0.522-2.113,1.033-2.519,1.162c0.03,0.242,0.062,0.484,0.091,0.726
				c0.139,1.162,0.273,2.323,0.438,3.458c0.058,0.4,0.13,0.791,0.201,1.183c0.004-0.26,0.01-0.48,0.014-0.513
				c0.133-1.026,0.993-2.93,2.132-3.141c0.821-0.151,1.516,0.491,1.581,1.289c0.067,0.815-0.524,1.631-1.101,2.145
				c-0.558,0.498-1.964,0.982-2.446,1.138c0.085,0.399,0.169,0.799,0.268,1.183c0.074,0.26,0.128,0.516,0.216,0.773
				c0.083,0.256,0.165,0.51,0.246,0.761c0.174,0.478,0.351,0.973,0.532,1.435c0.124,0.323,0.248,0.628,0.372,0.935
				c-0.063-0.397-0.169-1.178-0.17-1.244c-0.016-0.687,0.228-1.804,0.714-2.589c-0.003-0.102,0.003-0.203,0.019-0.303
				c0.127-0.791,0.87-1.378,1.676-1.163c1.119,0.298,1.829,2.263,1.882,3.296c0.003,0.061-0.037,0.726-0.069,1.145
				c0.057-0.244,0.108-0.48,0.169-0.73c0.117-0.495,0.249-0.986,0.389-1.514c0.076-0.253,0.154-0.508,0.232-0.766
				c0.072-0.257,0.181-0.52,0.271-0.783c0.221-0.605,0.475-1.208,0.744-1.809c-0.433-0.104-1.967-0.495-2.582-0.967
				c-0.613-0.47-1.263-1.24-1.257-2.057c0.006-0.801,0.651-1.494,1.48-1.404c1.152,0.125,2.151,1.96,2.36,2.973
				c0.013,0.063,0.081,0.807,0.111,1.216c0.165-0.36,0.327-0.721,0.505-1.08c0.515-1.037,1.068-2.07,1.615-3.103
				c0.168-0.316,0.331-0.633,0.496-0.951c-0.155-0.035-1.987-0.461-2.677-0.99c-0.613-0.47-1.263-1.24-1.257-2.058
				c0.006-0.801,0.651-1.494,1.48-1.403c1.152,0.125,2.151,1.96,2.36,2.973c0.016,0.076,0.112,1.147,0.123,1.42
				c0.363-0.698,0.718-1.397,1.04-2.101c0.445-0.97,0.829-1.946,1.131-2.92c-0.072-0.016-1.987-0.452-2.693-0.994
				c-0.613-0.47-1.263-1.24-1.257-2.057c0.006-0.801,0.651-1.494,1.481-1.404c1.152,0.125,2.151,1.96,2.36,2.973
				c0.016,0.08,0.12,1.231,0.123,1.441c0.018-0.058,0.043-0.116,0.06-0.174c0.309-1.044,0.477-2.093,0.586-3.083
				c0.065-0.575,0.094-1.129,0.111-1.668c-0.365-0.045-2.03-0.266-2.72-0.684c-0.661-0.4-1.392-1.094-1.476-1.907
				c-0.082-0.797,0.483-1.556,1.317-1.558c1.158-0.002,2.353,1.712,2.672,2.695c0.017,0.054,0.134,0.617,0.212,1.029
				c0.004-0.243,0.012-0.495,0.011-0.728c-0.002-0.876-0.057-1.678-0.112-2.388c-0.034-0.404-0.074-0.768-0.114-1.108
				c-0.335-0.23-1.675-1.176-2.087-1.852c-0.402-0.66-0.731-1.612-0.431-2.372c0.294-0.745,1.146-1.158,1.887-0.775
				c1.029,0.532,1.3,2.604,1.13,3.624c-0.015,0.088-0.404,1.441-0.421,1.429c0,0-0.016-0.011-0.02-0.014
				c0.045,0.327,0.09,0.677,0.131,1.062c0.071,0.71,0.144,1.513,0.164,2.392c0.023,0.879,0.023,1.834-0.068,2.84
				c-0.09,1.009-0.235,2.065-0.526,3.134c-0.003,0.012-0.008,0.024-0.012,0.036c0.182-0.286,0.719-1.07,0.767-1.125
				c0.677-0.782,2.444-1.896,3.511-1.443c0.768,0.326,0.993,1.246,0.607,1.948C691.85,435.839,690.908,436.193,690.143,436.304z"/>
			<path style="fill:#263238;" d="M670.279,430.862c-0.018,0.011-0.37-1.351-0.382-1.44c-0.143-1.024,0.184-3.088,1.227-3.592
				c0.751-0.363,1.591,0.074,1.865,0.826c0.28,0.768-0.075,1.711-0.495,2.36C672.002,429.778,670.281,430.861,670.279,430.862z"/>
		</g>
	</g>
</g>
<g id="Clouds">
	<g>
		<path style="fill:none;stroke:#263238;stroke-linecap:round;stroke-linejoin:round;stroke-miterlimit:10;" d="M93.72,127.754
			c-3.309,1.934-4.557,5.68-5.156,7.476c-0.828,2.483-3.725-1.655-9.518,0.414c-5.794,2.069-6.621,6.622-7.863,7.863
			s-9.518,4.552-9.518,4.552h83.052"/>
		<path style="fill:none;stroke:#263238;stroke-linecap:round;stroke-linejoin:round;stroke-miterlimit:10;" d="M148.855,148.059
			h10.062c0,0,1.655-9.105-2.069-13.657c-3.725-4.552-12.001,2.069-14.484-4.552c0,0-7.449-10.76-16.554-11.588
			c-9.104-0.828-12.829,6.208-15.726,9.932c-2.897,3.725-4.552-1.655-11.588-1.655"/>
		<path style="fill:none;stroke:#263238;stroke-linecap:round;stroke-linejoin:round;stroke-miterlimit:10;" d="M109.107,140.668
			c-1.688,1.571-1.921,3.666-1.921,3.666"/>
		<path style="fill:none;stroke:#263238;stroke-linecap:round;stroke-linejoin:round;stroke-miterlimit:10;" d="M140.708,133.575
			c0,0-5.794-5.794-12.415-5.38c-6.622,0.414-4.138,8.277-7.035,10.76c-2.897,2.483-6.208-0.828-9.932,0.414"/>
	</g>
	<g>
		<path style="fill:none;stroke:#263238;stroke-linecap:round;stroke-linejoin:round;stroke-miterlimit:10;" d="M318.613,35.991
			c-2.729,1.595-3.759,4.685-4.253,6.166c-0.683,2.048-3.072-1.365-7.85,0.341c-4.778,1.707-5.461,5.461-6.485,6.485
			c-1.024,1.024-7.85,3.755-7.85,3.755h68.498"/>
		<path style="fill:none;stroke:#263238;stroke-linecap:round;stroke-linejoin:round;stroke-miterlimit:10;" d="M364.086,52.738
			h8.299c0,0,1.365-7.509-1.707-11.264c-3.072-3.755-9.898,1.707-11.946-3.755c0,0-6.144-8.874-13.653-9.557
			c-7.509-0.683-10.581,5.12-12.97,8.192c-2.389,3.072-3.754-1.365-9.557-1.365"/>
		<path style="fill:none;stroke:#263238;stroke-linecap:round;stroke-linejoin:round;stroke-miterlimit:10;" d="M331.304,46.643
			c-1.392,1.296-1.584,3.024-1.584,3.024"/>
		<path style="fill:none;stroke:#263238;stroke-linecap:round;stroke-linejoin:round;stroke-miterlimit:10;" d="M357.367,40.792
			c0,0-4.779-4.778-10.24-4.437c-5.461,0.341-3.413,6.826-5.802,8.874c-2.389,2.048-5.12-0.683-8.192,0.341"/>
	</g>
	<g>
		<path style="fill:none;stroke:#263238;stroke-linecap:round;stroke-linejoin:round;stroke-miterlimit:10;" d="M623.692,129.035
			c-2.729,1.596-3.759,4.685-4.253,6.166c-0.683,2.048-3.072-1.365-7.85,0.341c-4.779,1.707-5.461,5.461-6.485,6.485
			c-1.024,1.024-7.85,3.755-7.85,3.755h68.498"/>
		<path style="fill:none;stroke:#263238;stroke-linecap:round;stroke-linejoin:round;stroke-miterlimit:10;" d="M669.165,145.783
			h8.299c0,0,1.365-7.509-1.707-11.264c-3.072-3.755-9.898,1.707-11.946-3.755c0,0-6.144-8.874-13.653-9.557
			c-7.509-0.683-10.581,5.12-12.97,8.192c-2.389,3.072-3.755-1.365-9.557-1.365"/>
		<path style="fill:none;stroke:#263238;stroke-linecap:round;stroke-linejoin:round;stroke-miterlimit:10;" d="M636.383,139.687
			c-1.392,1.296-1.584,3.024-1.584,3.024"/>
		<path style="fill:none;stroke:#263238;stroke-linecap:round;stroke-linejoin:round;stroke-miterlimit:10;" d="M662.445,133.837
			c0,0-4.779-4.779-10.24-4.437c-5.461,0.341-3.413,6.826-5.802,8.874c-2.389,2.048-5.12-0.683-8.192,0.341"/>
	</g>
</g>
<g id="Text_3">
	<g>
		<path style="fill:#263238;stroke:#263238;stroke-miterlimit:10;" d="M598.847,271.145l-22.332-50.692l-60.392,26.605
			l-14.297-32.453L494.547,57.68l44.191-19.468l59.433,134.909l19.149-8.436l13.943,31.649l-19.149,8.436l22.332,50.692
			L598.847,271.145z M532.132,202.215l30.442-13.411L521.927,96.54L532.132,202.215z"/>
		<path style="fill:#92E3A9;stroke:#263238;stroke-miterlimit:10;" d="M593.998,273.349l-22.332-50.692l-60.392,26.605
			l-14.297-32.453l-7.279-156.925l44.191-19.468l59.434,134.909l19.149-8.436l13.943,31.649l-19.149,8.436l22.332,50.691
			L593.998,273.349z M527.282,204.419l30.441-13.411l-40.646-92.264L527.282,204.419z"/>
	</g>
</g>
<g id="Text_2">
	<g>
		<path style="fill:#263238;stroke:#263238;stroke-miterlimit:10;" d="M409.172,315.297c-12.841,2.365-24.012,1.443-33.516-2.767
			s-17.296-10.969-23.376-20.281c-6.08-9.31-10.34-20.595-12.783-33.854l-19.273-104.629c-2.513-13.641-2.696-25.975-0.542-37.003
			c2.151-11.022,6.918-20.198,14.299-27.518c7.381-7.32,17.667-12.195,30.859-14.625c13.014-2.397,24.23-1.483,33.648,2.742
			c9.414,4.226,17.092,11.109,23.033,20.641c5.938,9.537,10.166,21.126,12.678,34.767l19.273,104.629
			c2.442,13.259,2.482,25.321,0.118,36.187c-2.363,10.866-7.235,19.959-14.616,27.279
			C431.594,308.187,421.658,312.997,409.172,315.297z M401.951,276.098c4.749-0.875,7.878-3.137,9.387-6.795
			c1.509-3.654,2.198-7.804,2.071-12.451c-0.13-4.642-0.546-8.886-1.254-12.733l-18.954-102.899
			c-0.778-4.225-1.902-8.59-3.366-13.089c-1.468-4.498-3.563-8.233-6.293-11.208c-2.73-2.971-6.56-4.007-11.482-3.101
			c-4.926,0.907-8.178,3.248-9.756,7.013c-1.582,3.769-2.253,8.014-2.018,12.739c0.232,4.726,0.741,9.204,1.519,13.429
			l18.954,102.899c0.708,3.846,1.829,7.961,3.364,12.344c1.533,4.388,3.746,8.004,6.636,10.848
			C393.645,275.942,397.376,276.941,401.951,276.098z"/>
		<path style="fill:#92E3A9;stroke:#263238;stroke-miterlimit:10;" d="M403.441,316.62c-12.841,2.365-24.012,1.443-33.516-2.767
			c-9.504-4.209-17.296-10.969-23.376-20.281c-6.08-9.31-10.34-20.595-12.782-33.854L314.493,155.09
			c-2.513-13.641-2.696-25.975-0.542-37.003c2.151-11.022,6.918-20.198,14.299-27.518c7.381-7.32,17.667-12.194,30.859-14.624
			c13.014-2.397,24.23-1.483,33.648,2.742c9.414,4.226,17.092,11.109,23.033,20.641c5.938,9.537,10.166,21.126,12.678,34.767
			l19.272,104.629c2.442,13.259,2.482,25.321,0.118,36.186c-2.363,10.866-7.235,19.959-14.616,27.279
			C425.863,309.509,415.928,314.32,403.441,316.62z M396.22,277.42c4.749-0.875,7.878-3.137,9.387-6.795
			c1.509-3.654,2.198-7.804,2.071-12.451c-0.13-4.642-0.546-8.886-1.254-12.733l-18.954-102.9c-0.778-4.225-1.902-8.59-3.366-13.089
			c-1.468-4.498-3.563-8.233-6.293-11.208c-2.73-2.971-6.56-4.007-11.482-3.101c-4.926,0.907-8.178,3.248-9.756,7.013
			c-1.582,3.77-2.253,8.014-2.018,12.739c0.232,4.726,0.741,9.204,1.519,13.429l18.954,102.899
			c0.708,3.846,1.829,7.961,3.364,12.344c1.533,4.388,3.746,8.004,6.636,10.848C387.914,277.264,391.645,278.263,396.22,277.42z"/>
	</g>
</g>
<g id="Text_1">
	<g>
		<path style="fill:#263238;stroke:#263238;stroke-miterlimit:10;" d="M179.666,289.601l12.724-53.911l-64.23-15.16l8.146-34.514
			l88.754-129.62l46.997,11.092l-33.864,143.478l20.365,4.807l-7.944,33.659l-20.365-4.807l-12.724,53.911L179.666,289.601z
			 M167.959,194.389l32.376,7.642l23.16-98.124L167.959,194.389z"/>
		<path style="fill:#92E3A9;stroke:#263238;stroke-miterlimit:10;" d="M174.492,288.459l12.724-53.911l-64.23-15.16l8.146-34.514
			l88.754-129.62l46.997,11.093l-33.864,143.478l20.365,4.807l-7.944,33.659l-20.366-4.807l-12.725,53.911L174.492,288.459z
			 M162.785,193.247l32.376,7.642l23.16-98.124L162.785,193.247z"/>
	</g>
</g>
<g id="Character_3">
	<g>
		<g>
			<path style="fill:#263238;stroke:#263238;stroke-miterlimit:10;" d="M534.59,299.004c0,0-3.557,23.79-2.223,31.794
				c1.334,8.004,19.121,43.578,19.121,43.578v4.891l-13.563,6.67l4.002,9.116l5.558-1.334l-5.336,25.346l11.562,2.446l14.897-32.461
				c0,0,25.791-8.004,26.236-10.005c0.445-2.001-4.224-32.906-4.224-32.906s-5.781-28.015-9.561-37.353
				c-3.78-9.338-8.449-17.787-8.449-17.787L534.59,299.004z"/>
			<polyline style="fill:none;stroke:#FFFFFF;stroke-miterlimit:10;" points="547.93,333.021 556.823,335.689 570.608,371.263 
				553.711,379.045 			"/>
			<line style="fill:none;stroke:#FFFFFF;stroke-miterlimit:10;" x1="566.162" y1="390.162" x2="550.82" y2="393.275"/>
		</g>
		<g>
			<path style="fill:#FFFFFF;stroke:#263238;stroke-miterlimit:10;" d="M521.829,240.584l-12.42,9.69l-2.945-6.007l-8.286,4.657
				c0,0-0.309,26.25,1.914,27.306c2.223,1.055,29.471-14.946,29.471-14.946s1.82,28.888,1.365,33.21
				c-0.455,4.322,2.502,6.369,4.549,6.142c2.047-0.228,40.716-5.232,41.626-6.369c0.91-1.137,1.82-4.094,1.365-5.914
				c-0.455-1.82-8.871-33.437-8.871-33.437s22.974,3.639,23.884,1.592c0.91-2.047,7.734-21.609,7.734-21.609l-11.601-2.73
				l-4.322,6.596c0,0-24.794-10.236-32.755-10.236S524.331,238.764,521.829,240.584z"/>
			<line style="fill:none;stroke:#263238;stroke-miterlimit:10;" x1="585.292" y1="238.764" x2="591.149" y2="241.137"/>
			<polyline style="fill:none;stroke:#263238;stroke-miterlimit:10;" points="555.43,252.961 569.596,254.914 554.086,257.239 			
				"/>
			<line style="fill:none;stroke:#263238;stroke-miterlimit:10;" x1="502.237" y1="258.428" x2="500.355" y2="260.569"/>
			<line style="fill:none;stroke:#263238;stroke-miterlimit:10;" x1="509.409" y1="250.274" x2="504.144" y2="256.26"/>
			<path style="fill:none;stroke:#263238;stroke-miterlimit:10;" d="M563.425,266.414c-4.941,6.994-15.127,20.767-21.684,25.168"/>
			<path style="fill:none;stroke:#263238;stroke-miterlimit:10;" d="M566.307,262.25c0,0-0.519,0.775-1.423,2.079"/>
			<path style="fill:none;stroke:#263238;stroke-miterlimit:10;" d="M541.852,288.252c-1.478,1.535-2.922,2.903-4.144,3.819"/>
			<path style="fill:none;stroke:#263238;stroke-miterlimit:10;" d="M551.03,277.527c0,0-3.837,4.949-7.835,9.296"/>
		</g>
		<g>
			<path style="fill:#FFFFFF;stroke:#263238;stroke-miterlimit:10;" d="M498.178,248.923l-1.102-24.895c0,0-4.464-8.544-4.563-9.219
				c-0.098-0.675,1.679-8.98,2.157-10.429c0.478-1.449,2.992,0.023,4.286,2.593c1.294,2.57,0.661,6.11,0.661,6.11
				s2.94,4.398,3.461,6.391c0.521,1.993-0.436,4.891-0.436,4.891l3.822,19.901L498.178,248.923z"/>
			<path style="fill:none;stroke:#263238;stroke-miterlimit:10;" d="M496.789,204.233c0,0-1.452,0.319-1.148,1.666
				c0.304,1.347,1.727,6.705,1.522,8.233"/>
		</g>
		<g>
			<path style="fill:#FFFFFF;stroke:#263238;stroke-miterlimit:10;" d="M589.613,231.097c0,0,17.263-29.337,18.852-30.184
				c1.589-0.847,13.662-0.53,13.662-0.53s4.66-6.46,5.295-5.719c0.635,0.741,0.635,0.741,0.635,0.741s1.695-0.953,2.224-0.424
				c0.529,0.529,0.529,0.529,0.529,0.529s1.165-0.953,1.8-0.635c0.635,0.318,0.635,1.271,0.635,1.271s1.271-0.741,0.953,0.635
				s-4.236,8.155-5.825,9.108c-1.589,0.953-17.793,0.953-17.793,0.953l-8.79,26.053L589.613,231.097z"/>
			<path style="fill:none;stroke:#263238;stroke-miterlimit:10;" d="M628.058,195.406c0,0-4.024,7.52-4.872,8.261"/>
			<line style="fill:none;stroke:#263238;stroke-miterlimit:10;" x1="630.811" y1="195.512" x2="625.834" y2="204.62"/>
			<line style="fill:none;stroke:#263238;stroke-miterlimit:10;" x1="633.247" y1="196.148" x2="628.482" y2="204.197"/>
		</g>
		<polygon style="fill:#FFFFFF;stroke:#263238;stroke-miterlimit:10;" points="495.248,247.742 497.681,254.973 510.202,246.25 
			507.191,239.793 		"/>
		<g>
			<path style="fill:#FFFFFF;stroke:#263238;stroke-miterlimit:10;" d="M570.279,202.142c0,0,0,4.549-1.137,8.189
				c-1.137,3.64,2.047,6.824,1.137,7.961c-0.91,1.137-3.867,2.73-3.867,2.73s-1.365,6.142-3.639,7.051
				c-2.275,0.91-8.644-1.82-8.644-1.82s-5.687-7.279-1.82-13.648C556.176,206.237,570.279,202.142,570.279,202.142z"/>
			<path style="fill:#263238;" d="M566.181,213.421c-0.27,0.845-0.769,1.44-1.114,1.33c-0.346-0.11-0.407-0.885-0.137-1.73
				c0.27-0.845,0.769-1.44,1.114-1.33C566.39,211.801,566.451,212.576,566.181,213.421z"/>
			<path style="fill:none;stroke:#263238;stroke-miterlimit:10;" d="M564.278,209.129c0,0,1.326-1.89,3.302-0.751"/>
			<path style="fill:none;stroke:#263238;stroke-miterlimit:10;" d="M560.956,218.477c0,0,0.73,2.628,3.942,2.92"/>
		</g>
		<path style="fill:#263238;stroke:#263238;stroke-miterlimit:10;" d="M575.056,191.451c0,0,2.502,5.914-0.455,9.781
			c-2.957,3.867-10.463,4.094-15.013,10.008c-4.549,5.914-2.73,13.648-1.592,16.15c1.137,2.502-0.682,12.056-3.867,13.42
			c-3.185,1.365-8.416,2.275-7.051,5.459c1.365,3.185,2.957,8.644,1.592,11.373c-1.365,2.73-10.008,7.506-16.832,5.004
			c-6.824-2.502-6.596-7.506-4.777-10.918c1.82-3.412-1.82-1.82-5.687-7.279c-3.867-5.459-8.644-15.013-2.502-19.79
			c6.142-4.777,10.918-6.369,11.373-10.918s-1.885-15.354,4.029-19.904s9.26-3.472,9.26-3.472s5.59-6.194,11.732-6.194
			c6.141,0,8.644,3.867,8.644,3.867S571.644,181.898,575.056,191.451z"/>
		<polygon style="fill:#FFFFFF;stroke:#263238;stroke-miterlimit:10;" points="588.704,228.528 586.656,233.76 601.442,238.992 
			603.489,230.803 		"/>
		<path style="fill:#FFFFFF;stroke:#263238;stroke-miterlimit:10;" d="M537.925,385.938c0,0-29.23,10.252-28.878,12.367
			c0.352,2.115,7.225,20.618,10.045,23.614c2.82,2.996,4.053,4.758,4.582,2.291c0.529-2.467-0.176-5.463-0.176-6.697
			s1.41-15.332,1.938-16.036c0.529-0.705,16.491-6.423,16.491-6.423L537.925,385.938z"/>
		<path style="fill:#FFFFFF;stroke:#263238;stroke-miterlimit:10;" d="M520.678,402.886l-3.281-9.159
			c-4.781,2.007-8.477,3.817-8.35,4.577c0.352,2.115,7.225,20.618,10.045,23.614c2.82,2.996,4.053,4.758,4.582,2.291
			c0.529-2.467-0.176-5.463-0.176-6.697c0-1.234,1.41-15.332,1.938-16.036L520.678,402.886z"/>
		<path style="fill:#FFFFFF;stroke:#263238;stroke-miterlimit:10;" d="M542.149,419.066c0,0-8.354,28.772-8.078,30.343
			c0.275,1.572,8.226,4.046,11.282,4.913c3.056,0.867,10.806,0.557,12.872-0.279c2.066-0.836,3.374-2.508,1.747-3.112
			c-1.627-0.604-6.112-1.735-6.112-1.735l-6.544-8.594l6.395-19.091L542.149,419.066z"/>
		<path style="fill:#FFFFFF;stroke:#263238;stroke-miterlimit:10;" d="M559.972,450.931c-1.627-0.604-6.112-1.735-6.112-1.735
			l-6.544-8.594l-1.516,3.98l-9.956-3.177c-1.077,4.538-1.865,7.479-1.773,8.004c0.275,1.572,8.226,4.046,11.282,4.913
			c3.056,0.867,10.806,0.557,12.872-0.28C560.292,453.207,561.599,451.535,559.972,450.931z"/>
	</g>
</g>
<g id="Character_2">
	<g>
		<g>
			<path style="fill:#FFFFFF;stroke:#263238;stroke-miterlimit:10;" d="M339.457,184.686c0,0,8.846,7.925,10.137,7.925
				s2.58-3.87,4.607-1.106c2.027,2.765,0,5.898,0,5.898s8.109,8.846,6.819,10.505c-1.29,1.659-7.372,5.16-7.372,5.16l-1.29,15.481
				l-16.587-4.608l-0.184-5.713l-8.662-5.713c0,0-4.607-7.741-1.474-15.297C328.583,189.662,339.457,184.686,339.457,184.686z"/>
			<path style="fill:#263238;stroke:#263238;stroke-miterlimit:10;" d="M339.457,184.686c0,0-8.662,7.556-7.741,8.478
				c0.922,0.921,5.529,2.212,4.792,3.502s-2.764,5.345-2.764,5.345s3.686,2.027,3.502,3.133c-0.184,1.106-1.106,2.212-1.659,2.027
				c-0.553-0.184-5.898-2.027-6.451,0.922c-0.553,2.949,1.843,5.713,3.87,6.635c2.027,0.921,5.345-1.106,5.345-1.106
				s-2.212,4.423-2.764,4.607c-0.553,0.184-10.505-4.239-14.375-5.898c-3.87-1.659-7.372-4.055-6.45-8.109
				c0.921-4.055,2.027-9.215,5.529-12.164c3.502-2.949,6.45-6.266,6.45-6.266s-4.976-2.764-1.29-4.239c3.686-1.474,7.556,0,7.556,0
				s-1.29-4.055,2.027-3.317C338.351,178.972,340.01,181.184,339.457,184.686z"/>
			<path style="fill:none;stroke:#263238;stroke-miterlimit:10;" d="M341.484,213.989"/>
			<polygon style="fill:#263238;stroke:#263238;stroke-miterlimit:10;" points="353.648,213.068 347.75,216.385 352.911,220.071 			
				"/>
			<path style="fill:none;stroke:#263238;stroke-miterlimit:10;" d="M342.405,190.583c0,0-3.686,0-3.317,3.502"/>
			<path style="fill:#263238;" d="M346.561,195.081c0.673,0.83,0.802,1.841,0.288,2.258c-0.514,0.417-1.476,0.081-2.149-0.749
				s-0.802-1.841-0.288-2.258C344.926,193.916,345.888,194.251,346.561,195.081z"/>
		</g>
		<path style="fill:#FFFFFF;stroke:#263238;stroke-miterlimit:10;" d="M325.906,432.215c0,0,0.91,9.099,1.82,10.463
			c0.91,1.365,9.553,5.687,11.373,7.506c1.82,1.82-2.275,3.185-4.322,4.094c-2.047,0.91-4.322,0.682-8.416-0.455
			s-7.961-4.549-10.463-5.687c-2.502-1.137-8.871-3.185-8.416-4.777c0.455-1.592,8.416-14.558,8.416-14.558L325.906,432.215z"/>
		<path style="fill:#FFFFFF;stroke:#263238;stroke-miterlimit:10;" d="M415.527,436.764c0,0,10.009,12.966,10.691,13.193
			c1.641,0.541,8.355-6.807,9.659-7.882c3.799-3.132,7.254-6.643,9.975-10.762c1.123-1.701,4.52-7.485,1.748-9.334
			c-3.435-2.29-7.6,3.094-10.463,4.322c-1.592,0.682-6.141,2.729-6.141,2.729L415.527,436.764z"/>
		<path style="fill:#263238;stroke:#263238;stroke-miterlimit:10;" d="M334.549,315.07c0,0,0.682,11.601,1.592,12.966
			c0.91,1.365,4.094,12.056,4.094,12.056l-7.279,41.626l-18.425,46.175l13.193,5.914l26.386-48.677c0,0,9.099-23.429,9.326-24.111
			c0.227-0.682,52.089,75.746,52.089,75.746l10.918-7.051l-34.575-75.291l-17.06-40.489L334.549,315.07z"/>
		<polygon style="fill:#FFFFFF;stroke:#263238;stroke-miterlimit:10;" points="314.76,419.704 312.94,429.94 327.498,436.309 
			332.957,428.12 		"/>
		<polygon style="fill:#FFFFFF;stroke:#263238;stroke-miterlimit:10;" points="410.523,434.262 416.437,440.176 430.995,429.03 
			425.535,422.206 		"/>
		<path style="fill:#FFFFFF;stroke:#263238;stroke-miterlimit:10;" d="M333.375,227.259c0,0-6.082,22.484-5.345,28.382
			c0.737,5.898-1.29,61.556-1.29,61.556s13.27,4.055,28.751,2.396c15.481-1.659,24.512-4.607,24.512-4.607
			s-15.481-61.372-18.061-68.743c-2.58-7.372-9.031-15.85-9.031-15.85L333.375,227.259z"/>
		<polygon style="fill:#FFFFFF;stroke:#263238;stroke-miterlimit:10;" points="333.928,221.361 331.532,228.549 356.412,234.999 
			357.149,226.706 		"/>
		<path style="fill:#FFFFFF;stroke:#263238;stroke-miterlimit:10;" d="M391.245,310.377l5.16,1.29c0,0,2.212-3.133,3.87-3.686
			c1.659-0.553,3.686-0.184,5.713-0.184c2.027,0,3.87-2.764,5.529-1.474c1.659,1.29-0.922,2.764-1.843,3.133
			c-0.922,0.369-5.345,1.29-5.345,1.29s10.505,3.133,11.242,3.133c0.737,0-0.553,1.843-1.474,2.396
			c-0.922,0.553-4.055,0.737-4.055,0.737s-5.16,1.843-7.741,2.027c-2.58,0.184-9.399-2.027-9.399-2.027l-4.239-1.659l-2.58-0.922
			L391.245,310.377z"/>
		<path style="fill:#FFFFFF;stroke:#263238;stroke-miterlimit:10;" d="M339.272,237.395c0,0-7.741,7.003-5.713,13.454
			c2.027,6.45,50.866,68.191,50.866,68.191l10.137-9.584l-42.573-70.955"/>
		<line style="fill:none;stroke:#FFFFFF;stroke-miterlimit:10;" x1="347.97" y1="340.774" x2="362.3" y2="359.198"/>
	</g>
</g>
<g id="Character_1">
	<g>
		<path style="fill:#263238;stroke:#263238;stroke-miterlimit:10;" d="M135.254,189.332c0,0-5.932,5.788-6.366,9.405
			c-0.434,3.617-5.498,18.665-3.762,21.559c1.736,2.894,10.997,8.682,10.997,8.682s-11.286,2.894-10.418,8.826
			c0.868,5.932,4.92,6.511,4.92,6.511s-9.116,5.354-6.077,9.26c3.039,3.907,10.273,3.328,11.431,0.145
			c1.157-3.183-1.013-7.235-1.013-7.235s5.788-1.736,7.235-4.196c1.447-2.46,1.013-4.775,1.013-4.775s5.064,0.868,8.103-1.302
			c3.039-2.17,4.341-8.971,4.341-8.971s10.707-6.077,14.469-15.916c3.762-9.839,2.46-13.891,0-16.929
			c-2.46-3.038-20.402-12.009-25.9-10.852C138.727,184.701,135.254,189.332,135.254,189.332z"/>
		<path style="fill:#FFFFFF;stroke:#263238;stroke-miterlimit:10;" d="M147.553,225.939l2.894,13.456l14.903-8.682l-4.051-5.788
			C161.299,224.926,151.026,228.398,147.553,225.939z"/>
		<g>
			<path style="fill:#FFFFFF;stroke:#263238;stroke-miterlimit:10;" d="M146.685,197.724l-9.116,16.061c0,0,3.328,7.379,5.354,9.694
				c2.026,2.315,4.486,5.209,11.286,5.932c6.801,0.723,10.852-5.932,11.141-10.273c0.289-4.341-4.341-17.218-4.341-17.218
				L146.685,197.724z"/>
			<path style="fill:#FFFFFF;stroke:#263238;stroke-miterlimit:10;" d="M138.727,215.232c0,0-4.341-1.736-3.328,1.881
				c1.013,3.617,5.643,3.617,5.643,3.617L138.727,215.232z"/>
			<path style="fill:#FFFFFF;stroke:#263238;stroke-miterlimit:10;" d="M162.167,205.682c0,0,0.579-2.46,2.749-1.013
				c2.17,1.447-0.723,6.801-0.723,6.801L162.167,205.682z"/>
			<polyline style="fill:none;stroke:#263238;stroke-miterlimit:10;" points="150.881,213.495 152.762,217.836 155.656,216.678 			
				"/>
			<path style="fill:none;stroke:#263238;stroke-miterlimit:10;" d="M150.592,220.874c0,0,5.932,2.604,8.247-3.762"/>
			<path style="fill:none;stroke:#263238;stroke-miterlimit:10;" d="M154.788,210.457c0,0,1.881-2.46,4.341-1.736"/>
			<path style="fill:none;stroke:#263238;stroke-miterlimit:10;" d="M151.749,204.958c0,0,2.315-2.894,5.788-1.881"/>
			<path style="fill:none;stroke:#263238;stroke-miterlimit:10;" d="M146.54,206.839c0,0-4.051-1.736-5.788,2.894"/>
			<path style="fill:#263238;" d="M147.449,213.194c0.37,0.753,0.262,1.564-0.24,1.81c-0.502,0.247-1.209-0.164-1.579-0.918
				c-0.37-0.753-0.262-1.564,0.24-1.81C146.373,212.029,147.08,212.44,147.449,213.194z"/>
		</g>
		<path style="fill:#FFFFFF;stroke:#263238;stroke-miterlimit:10;" d="M218.655,201.938c0,0,8.268-5.61,8.859-6.201
			c0.591-0.591,4.134-2.953,5.758-4.282c1.624-1.329,2.067-5.758,3.839-5.02c1.772,0.738,2.215,2.51,1.624,3.839
			c-0.59,1.329-3.543,3.691-3.543,3.691s8.12-1.624,8.563-0.738c0.443,0.886,0.443,2.805-0.148,3.543
			c-0.591,0.738-1.329,1.624-1.329,1.624s-0.591,5.02-1.476,6.644c-0.886,1.624-4.282,2.658-6.644,2.658s-7.234,0.591-7.234,0.591
			l-5.463,2.215L218.655,201.938z"/>
		<polygon style="fill:#FFFFFF;stroke:#263238;stroke-miterlimit:10;" points="146.427,291.215 146.041,297.968 188.296,294.109 
			186.366,287.935 		"/>
		<g>
			<g>
				<path style="fill:#FFFFFF;stroke:#263238;stroke-miterlimit:10;" d="M149.785,236.895c0,0-7.359,4.308-9.307,7.647
					c-1.947,3.339-17.25,27.822-16.137,30.604c1.113,2.782,6.121,6.121,8.347,6.121s21.979,3.06,21.979,3.06l-3.108-44.376
					L149.785,236.895z"/>
				<path style="fill:none;stroke:#263238;stroke-miterlimit:10;" d="M144.93,270.695c0,0-6.399,5.008-11.964,6.399"/>
				<path style="fill:none;stroke:#263238;stroke-miterlimit:10;" d="M143.696,271.91c0,0-2.168,4.592-4.974,6.377"/>
			</g>
			<path style="fill:#FFFFFF;stroke:#263238;stroke-miterlimit:10;" d="M218.655,201.938c0,0-65.258,32.186-69.983,34.401
				c-4.725,2.215-9.597,12.55-8.416,20.67c1.181,8.12,6.792,16.979,7.234,18.308s-1.476,12.402-1.919,14.469
				c-0.443,2.067-0.295,3.691,1.624,4.577c1.919,0.886,38.387-4.134,39.716-4.872c1.329-0.738,2.51-2.51,1.624-5.611
				c-0.886-3.1-4.577-11.221-4.577-11.959c0-0.738-6.349-20.965-6.349-20.965s29.824-25.247,33.22-29.381
				c3.396-4.134,10.63-11.073,10.63-11.073L218.655,201.938z"/>
			<path style="fill:none;stroke:#263238;stroke-miterlimit:10;" d="M156.936,274.417c-1.257,1.178-2.366,2.107-3.244,2.671"/>
			<path style="fill:none;stroke:#263238;stroke-miterlimit:10;" d="M159.564,263.759c8.131-5.266,18.046-12.804,18.046-12.804
				s-10.634,13.292-18.308,21.135"/>
			<path style="fill:none;stroke:#263238;stroke-miterlimit:10;" d="M150.444,268.673c1.421-0.337,3.865-1.639,6.722-3.397"/>
			<path style="fill:none;stroke:#263238;stroke-miterlimit:10;" d="M165.356,271.035c0,0-4.725,5.02-6.644,6.349"/>
			<path style="fill:none;stroke:#263238;stroke-miterlimit:10;" d="M181.083,243.668c-0.784,1.026-1.554,1.902-2.291,2.563"/>
			<path style="fill:none;stroke:#263238;stroke-miterlimit:10;" d="M192.375,222.755c0,0-4.556,10.659-9.273,18.007"/>
			<line style="fill:none;stroke:#263238;stroke-miterlimit:10;" x1="214.964" y1="203.857" x2="218.655" y2="213.454"/>
		</g>
		<g>
			<path style="fill:#FFFFFF;stroke:#263238;stroke-miterlimit:10;" d="M165.143,395.019l-7.911,30.678l-5.017,7.718l-3.28,10.998
				l6.753,3.28c0,0,3.666-3.666,5.788-1.544c2.122,2.122,2.315,5.788,2.315,5.788s10.226,3.087,12.348,2.894
				c2.122-0.193,5.402,0.386,5.788-0.579c0.386-0.965,0.579-8.297-0.386-9.261c-0.671-0.671-7.685-2.916-12.155-6.753
				c-1.954-1.677-3.431-6.77-3.666-6.946c-0.772-0.579,15.821-34.151,15.821-34.151L165.143,395.019z"/>
			<path style="fill:#263238;stroke:#263238;stroke-miterlimit:10;" d="M181.929,454.253c0.386-0.965,0.579-8.297-0.386-9.261
				c-0.671-0.671-7.685-2.916-12.156-6.753c-1.954-1.677-3.431-6.77-3.666-6.946c-0.078-0.059,0.029-0.47,0.273-1.137l-9.331-3.583
				l-4.447,6.842l-3.28,10.998l6.753,3.28c0,0,3.666-3.666,5.788-1.544c2.123,2.122,2.315,5.788,2.315,5.788
				s10.226,3.087,12.348,2.894C178.263,454.638,181.543,455.217,181.929,454.253z"/>
		</g>
		<g>
			<path style="fill:#FFFFFF;stroke:#263238;stroke-miterlimit:10;" d="M194.47,385.565l18.889,47.136c0,0-1.216,7.12,0,9.03
				c1.215,1.91,3.994,8.856,3.994,8.856l10.072-2.431c0,0-0.868-3.473,1.91-3.299c2.778,0.174,4.862,1.389,4.862,1.389
				s8.162-4.341,10.593-5.73c2.431-1.389,3.647-3.299,3.473-3.994c-0.174-0.695-2.605-6.078-5.383-5.557
				c-2.778,0.521-7.988,2.778-10.593,2.778c-2.605,0-8.335-1.91-9.551-3.994c-1.215-2.084-9.358-37.045-9.358-37.045l-2.315-16.786
				l-8.297-28.363L194.47,385.565z"/>
			<path style="fill:#263238;stroke:#263238;stroke-miterlimit:10;" d="M248.263,436.521c-0.174-0.695-2.605-6.078-5.383-5.557
				c-2.778,0.521-7.988,2.778-10.593,2.778c-2.605,0-8.335-1.91-9.551-3.994c-0.12-0.205-0.308-0.738-0.548-1.516l-9.095,3.803
				l0.266,0.665c0,0-1.216,7.12,0,9.03c1.215,1.91,3.994,8.856,3.994,8.856l10.072-2.431c0,0-0.868-3.473,1.91-3.299
				c2.779,0.174,4.862,1.389,4.862,1.389s8.162-4.341,10.593-5.73C247.221,439.126,248.436,437.216,248.263,436.521z"/>
		</g>
		<path style="fill:#263238;stroke:#263238;stroke-miterlimit:10;" d="M146.041,297.968l-12.734,100.331
			c0,0,16.593,2.122,35.695,1.544c19.101-0.579,24.118-1.351,24.118-1.351l9.84-45.728l10.419,39.939l4.824-1.544
			c0,0-5.402-32.415-8.489-39.361c-3.087-6.946-21.417-57.69-21.417-57.69L146.041,297.968z"/>
	</g>
</g>
</svg>
