<?xml version="1.0" encoding="utf-8"?>
<!-- Generator: Adobe Illustrator 27.5.0, SVG Export Plug-In . SVG Version: 6.00 Build 0)  -->
<svg version="1.1" xmlns="http://www.w3.org/2000/svg" xmlns:xlink="http://www.w3.org/1999/xlink" x="0px" y="0px"
	 viewBox="0 0 500 500" style="enable-background:new 0 0 500 500;" xml:space="preserve">
<g id="Background_Simple">
	<g>
		<path style="fill:#92E3A9;" d="M192.784,460.333c28.827,18.62,82.961-3.961,103.605-25.244
			c67.01-69.082,185.541-185.772,162.561-307.388c-9.767-51.693-61.305-67.528-82.027-70.809
			c-49.761-7.879-100.688-1.475-150.121,8.253c-51.634,10.161-105.989,25.289-145.919,61.418
			c-15.124,13.685-28.613,29.795-35.839,49.063c-7.34,19.572-9.047,41.166-5.874,61.77c5.117,33.234,21.826,63.737,42.344,90.377
			c20.518,26.641,44.915,49.991,68.035,74.408C164.633,418.111,168.498,444.647,192.784,460.333z"/>
		<path style="opacity:0.7;fill:#FFFFFF;" d="M192.784,460.333c28.827,18.62,82.961-3.961,103.605-25.244
			c67.01-69.082,185.541-185.772,162.561-307.388c-9.767-51.693-61.305-67.528-82.027-70.809
			c-49.761-7.879-100.688-1.475-150.121,8.253c-51.634,10.161-105.989,25.289-145.919,61.418
			c-15.124,13.685-28.613,29.795-35.839,49.063c-7.34,19.572-9.047,41.166-5.874,61.77c5.117,33.234,21.826,63.737,42.344,90.377
			c20.518,26.641,44.915,49.991,68.035,74.408C164.633,418.111,168.498,444.647,192.784,460.333z"/>
	</g>
</g>
<g id="Graphics_1_">
	<g>
		<g>
			<path style="fill:none;stroke:#263238;stroke-linecap:round;stroke-linejoin:round;stroke-miterlimit:10;" d="M88.972,187.423
				l-3.918-0.338c-0.343-1.214-0.819-2.371-1.423-3.45l3.716-4.417l-5.434-5.434 M87.347,203.629l-3.716-4.417
				c0.605-1.078,1.081-2.235,1.423-3.45l5.757-0.496v-7.685 M77.496,205.347l4.417,3.716l3.699-3.699 M54.36,195.762
				c0.343,1.215,0.819,2.371,1.423,3.45l-3.716,4.417l5.434,5.434l4.417-3.716c1.078,0.605,2.235,1.081,3.45,1.423l0.496,5.757
				h7.685l0.496-5.757 M54.324,176.962l-2.257,2.257l3.716,4.417c-0.605,1.078-1.081,2.235-1.423,3.45l-5.757,0.496v7.685
				l3.464,0.339 M77.496,177.5c-1.078-0.605-2.235-1.081-3.45-1.423l-0.496-5.757h-7.685l-0.496,5.757
				c-1.215,0.343-2.371,0.819-3.45,1.423l-4.417-3.716l-1.727,1.727 M63.572,184.935c1.6-1.514,3.759-2.441,6.136-2.441
				c3.699,0,6.873,2.249,8.229,5.454 M66.622,199.807c-3.412-1.256-5.845-4.535-5.845-8.383 M78.637,191.424
				c0,4.932-3.998,8.93-8.93,8.93"/>
		</g>
	</g>
	<g>
		<g>
			<path style="fill:none;stroke:#263238;stroke-linecap:round;stroke-linejoin:round;stroke-miterlimit:10;" d="M435.947,87.196
				l-6.217-0.536c-0.544-1.927-1.299-3.763-2.259-5.474l5.897-7.009l-8.624-8.623 M433.368,112.913l-5.897-7.009
				c0.959-1.711,1.715-3.547,2.259-5.474l9.135-0.787V87.447 M417.735,115.64l7.009,5.897l5.87-5.87 M406.278,127.034h5.195
				l0.787-9.135 M380.965,70.595l-3.581,3.581l5.897,7.009c-0.959,1.711-1.715,3.547-2.259,5.474l-9.135,0.787 M417.735,71.45
				c-1.711-0.959-3.547-1.715-5.474-2.259l-0.787-9.135h-12.195l-0.787,9.135c-1.927,0.544-3.763,1.299-5.474,2.259l-7.009-5.897
				l-2.741,2.741 M395.639,83.248c2.539-2.402,5.966-3.874,9.736-3.874c5.87,0,10.906,3.569,13.058,8.655 M419.547,93.545
				c0,7.826-6.345,14.171-14.171,14.171"/>
		</g>
	</g>
</g>
<g id="Tools">
	<g style="opacity:0.3;">
		<g>
			<path d="M384.208,372.975c-0.63-1.213-1.695-2.107-2.998-2.519l-62.972-19.908c-1.341-0.425-2.8-0.265-4.039,0.436l-2.966-0.939
				c0.138-0.744-0.299-1.493-1.038-1.727c-0.798-0.252-1.656,0.192-1.91,0.992l-0.341,1.08l-52.385-16.56
				c-0.081-0.025-0.168-0.031-0.249-0.014l-3.36,0.679c-0.179,0.036-0.323,0.166-0.378,0.34c-0.055,0.173-0.012,0.362,0.113,0.494
				l2.359,2.488c0.059,0.062,0.132,0.107,0.213,0.133l52.385,16.56l-0.342,1.081c-0.123,0.388-0.087,0.8,0.101,1.16
				c0.189,0.36,0.505,0.627,0.893,0.749c0.388,0.122,0.8,0.086,1.16-0.101c0.305-0.158,0.542-0.408,0.682-0.716l2.965,0.937
				c0.614,1.286,1.716,2.257,3.056,2.68l62.972,19.908c0.511,0.162,1.028,0.238,1.538,0.238c2.172,0,4.192-1.396,4.881-3.574
				C384.958,375.572,384.838,374.186,384.208,372.975z"/>
			<path d="M177.089,361.584l-3.167-0.98c0.049-0.248-0.088-0.499-0.335-0.575l-4.258-1.317c-0.264-0.084-0.544,0.066-0.625,0.33
				l-1.153,3.726c-0.04,0.126-0.026,0.264,0.035,0.381c0.062,0.117,0.168,0.205,0.294,0.244l4.258,1.317
				c0.048,0.015,0.098,0.022,0.148,0.022c0.081,0,0.161-0.02,0.233-0.058c0.102-0.053,0.175-0.144,0.22-0.25l3.167,0.979
				c0.753,0.233,1.175,1.034,0.943,1.787l-8.956,28.953c-0.061,0.196,0.006,0.4,0.152,0.525l-0.902,2.916
				c-0.04,0.126-0.026,0.264,0.035,0.381c0.062,0.117,0.168,0.205,0.295,0.244l2.293,0.709c0.049,0.016,0.099,0.023,0.148,0.023
				c0.213,0,0.411-0.138,0.477-0.353l0.905-2.926c0.06-0.007,0.12-0.015,0.174-0.043c0.117-0.061,0.205-0.168,0.244-0.295
				l8.956-28.953c0.428-1.383,0.29-2.851-0.387-4.135C179.607,362.954,178.472,362.012,177.089,361.584z"/>
			<path d="M148.48,383.162c0.067-0.092,0.108-0.201,0.102-0.317c-0.007-0.133-0.066-0.257-0.165-0.346l-3.309-2.987
				c-0.098-0.089-0.231-0.147-0.36-0.128c-0.132,0.007-0.257,0.065-0.346,0.164l-2.613,2.895c-0.185,0.205-0.169,0.521,0.036,0.706
				l3.308,2.987c0.092,0.083,0.211,0.129,0.335,0.129c0.008,0,0.017,0,0.025-0.001c0.115-0.006,0.22-0.057,0.305-0.134l2.46,2.222
				c0.282,0.255,0.449,0.605,0.468,0.987c0.019,0.382-0.11,0.747-0.365,1.029l-20.31,22.494c-0.137,0.152-0.163,0.365-0.083,0.54
				l-2.046,2.266c-0.089,0.099-0.135,0.228-0.128,0.36c0.007,0.133,0.066,0.257,0.165,0.346l1.781,1.608
				c0.096,0.086,0.215,0.129,0.335,0.129c0.136,0,0.273-0.056,0.371-0.165l2.048-2.268c0.05,0.017,0.102,0.029,0.156,0.029
				c0.008,0,0.017,0,0.025-0.001c0.132-0.007,0.257-0.065,0.346-0.164l20.31-22.494c0.97-1.074,1.464-2.465,1.39-3.914
				c-0.074-1.449-0.707-2.782-1.781-3.752L148.48,383.162z"/>
			<path d="M315.448,394.199l-8.885,2.378l-2.65-2.652l0.972-3.621l8.884-2.377c0.162-0.044,0.291-0.165,0.345-0.323
				c0.054-0.158,0.024-0.333-0.077-0.465c-2.535-3.292-6.766-4.725-10.774-3.651c-3.242,0.868-5.696,3.211-6.857,6.11
				l-84.952,22.737c-2.252-1.597-5.171-2.22-8.04-1.452c-3.757,1.006-6.518,4.148-7.035,8.005c-0.022,0.166,0.04,0.331,0.166,0.442
				c0.125,0.11,0.296,0.147,0.459,0.107l8.275-2.216l2.447,2.449l-0.898,3.344l-8.275,2.214c-0.161,0.044-0.29,0.165-0.344,0.323
				s-0.024,0.333,0.078,0.465c1.851,2.403,4.666,3.749,7.598,3.749c0.829,0,1.667-0.107,2.495-0.329
				c2.869-0.768,5.086-2.765,6.24-5.273l84.945-22.736c0.385,0.303,0.787,0.59,1.219,0.84c1.58,0.913,3.334,1.379,5.111,1.379
				c0.89,0,1.785-0.117,2.667-0.353c4.011-1.073,6.959-4.427,7.511-8.544c0.022-0.166-0.039-0.331-0.165-0.441
				C315.782,394.196,315.607,394.157,315.448,394.199z"/>
		</g>
	</g>
	<g>
		<polygon style="fill:#999999;stroke:#263238;stroke-linecap:round;stroke-linejoin:round;stroke-miterlimit:10;" points="
			323.842,353.942 322.84,357.109 254.407,335.474 252.048,332.986 255.409,332.307 		"/>
		<path style="fill:#92E3A9;stroke:#263238;stroke-linecap:round;stroke-linejoin:round;stroke-miterlimit:10;" d="M314.261,349.528
			l-3.644-1.152l0.094-0.298c0.17-0.538-0.128-1.112-0.666-1.283c-0.538-0.17-1.112,0.128-1.282,0.666l-1.986,6.281
			c-0.17,0.538,0.128,1.112,0.666,1.283c0.538,0.17,1.112-0.128,1.283-0.666l0.094-0.298l3.644,1.152
			c0.508,1.201,1.5,2.188,2.841,2.612l62.972,19.908c2.43,0.768,5.023-0.579,5.792-3.009c0.768-2.43-0.579-5.024-3.009-5.792
			l-62.972-19.908C316.747,348.6,315.367,348.838,314.261,349.528z"/>
		
			<line style="fill:none;stroke:#263238;stroke-linecap:round;stroke-linejoin:round;stroke-miterlimit:10;" x1="314.261" y1="349.528" x2="312.98" y2="353.582"/>
		
			<line style="fill:none;stroke:#263238;stroke-linecap:round;stroke-linejoin:round;stroke-miterlimit:10;" x1="308.82" y1="354.061" x2="309.976" y2="350.403"/>
	</g>
	<g>
		
			<rect x="167.386" y="395.016" transform="matrix(0.2955 -0.9553 0.9553 0.2955 -259.2185 440.9124)" style="fill:#999999;stroke:#263238;stroke-linecap:round;stroke-linejoin:round;stroke-miterlimit:10;" width="3.92" height="2.4"/>
		<path style="fill:#999999;stroke:#263238;stroke-linecap:round;stroke-linejoin:round;stroke-miterlimit:10;" d="M171.237,395.178
			l-2.866-0.887l8.956-28.953c0.314-1.015-0.257-2.097-1.272-2.412l-6.446-1.994l0.887-2.866l6.446,1.994
			c2.596,0.803,4.055,3.569,3.252,6.164L171.237,395.178z"/>
		<g>
			
				<rect x="168.784" y="357.483" transform="matrix(0.2955 -0.9553 0.9553 0.2955 -223.3662 416.5193)" style="fill:#999999;stroke:#263238;stroke-linecap:round;stroke-linejoin:round;stroke-miterlimit:10;" width="3.9" height="4.457"/>
		</g>
	</g>
	<g>
		
			<rect x="126.538" y="412.154" transform="matrix(0.6702 -0.7422 0.7422 0.6702 -264.4166 231.7179)" style="fill:#999999;stroke:#263238;stroke-linecap:round;stroke-linejoin:round;stroke-miterlimit:10;" width="3.92" height="2.4"/>
		<path style="fill:#999999;stroke:#263238;stroke-linecap:round;stroke-linejoin:round;stroke-miterlimit:10;" d="M130.65,413.209
			l-2.227-2.01l20.31-22.494c0.712-0.789,0.65-2.011-0.139-2.723l-5.008-4.522l2.01-2.227l5.008,4.522
			c2.017,1.821,2.176,4.944,0.355,6.96L130.65,413.209z"/>
		<g>
			
				<rect x="143.171" y="378.596" transform="matrix(0.6702 -0.7422 0.7422 0.6702 -234.7883 233.3246)" style="fill:#999999;stroke:#263238;stroke-linecap:round;stroke-linejoin:round;stroke-miterlimit:10;" width="3.9" height="4.457"/>
		</g>
	</g>
	<g>
		
			<rect x="207.864" y="399.27" transform="matrix(0.966 -0.2585 0.2585 0.966 -95.9973 79.817)" style="fill:#92E3A9;stroke:#263238;stroke-linecap:round;stroke-linejoin:round;stroke-miterlimit:10;" width="95.205" height="11.244"/>
		<path style="fill:#92E3A9;stroke:#263238;stroke-linecap:round;stroke-linejoin:round;stroke-miterlimit:10;" d="M203.543,409.366
			c-3.659,0.979-6.195,4.054-6.669,7.587l8.554-2.289l2.855,2.857l-1.047,3.901l-8.554,2.289c2.176,2.824,5.909,4.221,9.568,3.242
			c4.856-1.3,7.74-6.29,6.44-11.147C213.39,410.949,208.399,408.066,203.543,409.366z"/>
		<path style="fill:#92E3A9;stroke:#263238;stroke-linecap:round;stroke-linejoin:round;stroke-miterlimit:10;" d="M308.433,400.81
			c3.919-1.049,6.636-4.343,7.144-8.128l-9.163,2.452l-3.059-3.06l1.121-4.179l9.163-2.452c-2.33-3.025-6.329-4.521-10.249-3.472
			c-5.202,1.392-8.291,6.738-6.898,11.941C297.885,399.114,303.231,402.202,308.433,400.81z"/>
		<path style="fill:#999999;stroke:#263238;stroke-linecap:round;stroke-linejoin:round;stroke-miterlimit:10;" d="M286.831,398.79
			l-60.305,16.141c-1.182,0.316-2.396-0.385-2.712-1.567l0,0c-0.316-1.181,0.385-2.396,1.567-2.712l60.305-16.141
			c1.181-0.316,2.396,0.385,2.712,1.567l0,0C288.714,397.259,288.012,398.474,286.831,398.79z"/>
	</g>
</g>
<g id="Device">
	<g>
		<path style="fill:#BFBFBF;stroke:#263238;stroke-linecap:round;stroke-linejoin:round;stroke-miterlimit:10;" d="M355.206,98.824
			h-15.661v-5.766c0-0.546,0.443-0.989,0.989-0.989h13.682c0.546,0,0.989,0.443,0.989,0.989V98.824z"/>
		<path style="fill:#BFBFBF;stroke:#263238;stroke-linecap:round;stroke-linejoin:round;stroke-miterlimit:10;" d="M373.835,98.824
			h-15.66v-5.766c0-0.546,0.443-0.989,0.989-0.989h13.682c0.546,0,0.989,0.443,0.989,0.989V98.824z"/>
		<path style="fill:#BFBFBF;stroke:#263238;stroke-linecap:round;stroke-linejoin:round;stroke-miterlimit:10;" d="M156.014,98.824
			h-31.855v-5.766c0-0.546,0.443-0.989,0.989-0.989h29.877c0.546,0,0.989,0.443,0.989,0.989V98.824z"/>
		<path style="fill:#BFBFBF;stroke:#263238;stroke-linecap:round;stroke-linejoin:round;stroke-miterlimit:10;" d="M96.037,294.573
			V114.387c0-11.473,9.301-20.773,20.773-20.773h264.721c11.473,0,20.773,9.301,20.773,20.773v180.186
			c0,11.473-9.301,20.773-20.773,20.773H116.811C105.338,315.347,96.037,306.046,96.037,294.573z"/>
		<path style="fill:#263238;" d="M382.203,313.019H116.139c-9.816,0-17.774-7.958-17.774-17.774V113.716
			c0-9.816,7.958-17.774,17.774-17.774h266.063c9.816,0,17.774,7.958,17.774,17.774v181.529
			C399.977,305.061,392.019,313.019,382.203,313.019z"/>
		<g>
			<path style="fill:#FFFFFF;stroke:#263238;stroke-linecap:round;stroke-linejoin:round;stroke-miterlimit:10;" d="
				M102.832,196.383c0,0.565-0.458,1.023-1.024,1.023c-0.565,0-1.023-0.458-1.023-1.023c0-0.565,0.458-1.024,1.023-1.024
				C102.374,195.36,102.832,195.818,102.832,196.383z"/>
			<path style="fill:#FFFFFF;stroke:#263238;stroke-linecap:round;stroke-linejoin:round;stroke-miterlimit:10;" d="
				M103.766,205.698c0,1.081-0.876,1.958-1.958,1.958c-1.081,0-1.957-0.876-1.957-1.958s0.876-1.958,1.957-1.958
				C102.89,203.74,103.766,204.617,103.766,205.698z"/>
			<path style="fill:#FFFFFF;stroke:#263238;stroke-linecap:round;stroke-linejoin:round;stroke-miterlimit:10;" d="
				M103.235,212.175c0,0.788-0.639,1.427-1.427,1.427c-0.788,0-1.426-0.639-1.426-1.427s0.639-1.427,1.426-1.427
				C102.597,210.748,103.235,211.387,103.235,212.175z"/>
		</g>
		<path style="fill:#FFFFFF;stroke:#263238;stroke-linecap:round;stroke-linejoin:round;stroke-miterlimit:10;" d="M105.351,297.259
			V111.702c0-4.846,3.928-8.774,8.773-8.774h270.092c4.845,0,8.773,3.928,8.773,8.774v185.557c0,4.846-3.928,8.774-8.773,8.774
			H114.125C109.28,306.033,105.351,302.104,105.351,297.259z"/>
		<path style="opacity:0.3;fill:#92E3A9;" d="M105.351,297.259V111.702c0-4.846,3.928-8.774,8.773-8.774h270.092
			c4.845,0,8.773,3.928,8.773,8.774v185.557c0,4.846-3.928,8.774-8.773,8.774H114.125
			C109.28,306.033,105.351,302.104,105.351,297.259z"/>
		<g>
			<path style="fill:#263238;" d="M183.524,146.178h-55.26c-0.56,0-1.015-0.454-1.015-1.015l0,0c0-0.56,0.454-1.015,1.015-1.015
				h55.26c0.56,0,1.015,0.454,1.015,1.015l0,0C184.539,145.724,184.085,146.178,183.524,146.178z"/>
			<path style="fill:#263238;" d="M167.33,158.189h-39.066c-0.56,0-1.015-0.454-1.015-1.015l0,0c0-0.56,0.454-1.015,1.015-1.015
				h39.066c0.56,0,1.015,0.454,1.015,1.015l0,0C168.345,157.734,167.89,158.189,167.33,158.189z"/>
			<path style="fill:#263238;" d="M191.622,170.199h-63.357c-0.56,0-1.015-0.454-1.015-1.015l0,0c0-0.56,0.454-1.015,1.015-1.015
				h63.357c0.56,0,1.015,0.454,1.015,1.015l0,0C192.636,169.745,192.182,170.199,191.622,170.199z"/>
			<path style="fill:#263238;" d="M183.524,182.209h-55.26c-0.56,0-1.015-0.454-1.015-1.015l0,0c0-0.56,0.454-1.015,1.015-1.015
				h55.26c0.56,0,1.015,0.454,1.015,1.015l0,0C184.539,181.755,184.085,182.209,183.524,182.209z"/>
			<path style="fill:#263238;" d="M167.33,194.22h-39.066c-0.56,0-1.015-0.454-1.015-1.015l0,0c0-0.56,0.454-1.015,1.015-1.015
				h39.066c0.56,0,1.015,0.454,1.015,1.015l0,0C168.345,193.766,167.89,194.22,167.33,194.22z"/>
			<g>
				<path style="opacity:0.2;" d="M200.276,142.615h10.869c0.97,0,1.757,0.787,1.757,1.757v1.583c0,0.97-0.787,1.757-1.757,1.757
					h-10.869c-0.971,0-1.757-0.787-1.757-1.757v-1.583C198.519,143.402,199.306,142.615,200.276,142.615z"/>
				<path style="fill:#92E3A9;stroke:#263238;stroke-linecap:round;stroke-linejoin:round;stroke-miterlimit:10;" d="
					M200.276,142.615h2.212c0.971,0,1.757,0.787,1.757,1.757v1.583c0,0.97-0.787,1.757-1.757,1.757h-2.212
					c-0.971,0-1.757-0.787-1.757-1.757v-1.583C198.519,143.402,199.306,142.615,200.276,142.615z"/>
			</g>
			<g>
				<path style="opacity:0.2;" d="M211.145,159.722h-10.869c-0.971,0-1.757-0.787-1.757-1.757v-1.583
					c0-0.971,0.787-1.757,1.757-1.757h10.869c0.97,0,1.757,0.787,1.757,1.757v1.583
					C212.902,158.936,212.115,159.722,211.145,159.722z"/>
				<path style="fill:#999999;stroke:#263238;stroke-linecap:round;stroke-linejoin:round;stroke-miterlimit:10;" d="
					M211.145,159.722h-2.212c-0.97,0-1.757-0.787-1.757-1.757v-1.583c0-0.971,0.787-1.757,1.757-1.757h2.212
					c0.97,0,1.757,0.787,1.757,1.757v1.583C212.902,158.936,212.115,159.722,211.145,159.722z"/>
			</g>
			<g>
				<path style="opacity:0.2;" d="M211.145,171.733h-10.869c-0.971,0-1.757-0.787-1.757-1.757v-1.583
					c0-0.971,0.787-1.757,1.757-1.757h10.869c0.97,0,1.757,0.787,1.757,1.757v1.583
					C212.902,170.946,212.115,171.733,211.145,171.733z"/>
				<path style="fill:#999999;stroke:#263238;stroke-linecap:round;stroke-linejoin:round;stroke-miterlimit:10;" d="
					M211.145,171.733h-2.212c-0.97,0-1.757-0.787-1.757-1.757v-1.583c0-0.971,0.787-1.757,1.757-1.757h2.212
					c0.97,0,1.757,0.787,1.757,1.757v1.583C212.902,170.946,212.115,171.733,211.145,171.733z"/>
			</g>
			<g>
				<path style="opacity:0.2;" d="M200.276,178.646h10.869c0.97,0,1.757,0.787,1.757,1.757v1.583c0,0.971-0.787,1.757-1.757,1.757
					h-10.869c-0.971,0-1.757-0.787-1.757-1.757v-1.583C198.519,179.433,199.306,178.646,200.276,178.646z"/>
				<path style="fill:#92E3A9;stroke:#263238;stroke-linecap:round;stroke-linejoin:round;stroke-miterlimit:10;" d="
					M200.276,178.646h2.212c0.971,0,1.757,0.787,1.757,1.757v1.583c0,0.971-0.787,1.757-1.757,1.757h-2.212
					c-0.971,0-1.757-0.787-1.757-1.757v-1.583C198.519,179.433,199.306,178.646,200.276,178.646z"/>
			</g>
			<g>
				<path style="opacity:0.2;" d="M211.145,195.754h-10.869c-0.971,0-1.757-0.787-1.757-1.757v-1.583
					c0-0.971,0.787-1.757,1.757-1.757h10.869c0.97,0,1.757,0.787,1.757,1.757v1.583
					C212.902,194.967,212.115,195.754,211.145,195.754z"/>
				<path style="fill:#999999;stroke:#263238;stroke-linecap:round;stroke-linejoin:round;stroke-miterlimit:10;" d="
					M211.145,195.754h-2.212c-0.97,0-1.757-0.787-1.757-1.757v-1.583c0-0.971,0.787-1.757,1.757-1.757h2.212
					c0.97,0,1.757,0.787,1.757,1.757v1.583C212.902,194.967,212.115,195.754,211.145,195.754z"/>
			</g>
			<path style="fill:#263238;" d="M289.523,158.189h-50.402c-0.56,0-1.015-0.454-1.015-1.015l0,0c0-0.56,0.454-1.015,1.015-1.015
				h50.402c0.56,0,1.015,0.454,1.015,1.015l0,0C290.538,157.734,290.084,158.189,289.523,158.189z"/>
			<path style="fill:#263238;" d="M281.426,146.178h-42.304c-0.56,0-1.015-0.454-1.015-1.015l0,0c0-0.56,0.454-1.015,1.015-1.015
				h42.304c0.56,0,1.015,0.454,1.015,1.015l0,0C282.441,145.724,281.986,146.178,281.426,146.178z"/>
			<path style="fill:#263238;" d="M289.523,194.22h-50.402c-0.56,0-1.015-0.454-1.015-1.015l0,0c0-0.56,0.454-1.015,1.015-1.015
				h50.402c0.56,0,1.015,0.454,1.015,1.015l0,0C290.538,193.766,290.084,194.22,289.523,194.22z"/>
			<path style="fill:#263238;" d="M273.329,182.209h-34.207c-0.56,0-1.015-0.454-1.015-1.015l0,0c0-0.56,0.454-1.015,1.015-1.015
				h34.207c0.56,0,1.015,0.454,1.015,1.015l0,0C274.344,181.755,273.889,182.209,273.329,182.209z"/>
			<path style="fill:#263238;" d="M265.232,170.199h-26.11c-0.56,0-1.015-0.454-1.015-1.015l0,0c0-0.56,0.454-1.015,1.015-1.015
				h26.11c0.56,0,1.015,0.454,1.015,1.015l0,0C266.246,169.745,265.792,170.199,265.232,170.199z"/>
			<g>
				
					<rect x="304.018" y="143.382" style="fill:#999999;stroke:#263238;stroke-linecap:round;stroke-linejoin:round;stroke-miterlimit:10;" width="3.563" height="3.563"/>
				
					<rect x="309.311" y="143.382" style="fill:#999999;stroke:#263238;stroke-linecap:round;stroke-linejoin:round;stroke-miterlimit:10;" width="3.563" height="3.563"/>
				
					<rect x="314.603" y="143.382" style="fill:#999999;stroke:#263238;stroke-linecap:round;stroke-linejoin:round;stroke-miterlimit:10;" width="3.563" height="3.563"/>
				
					<rect x="319.896" y="143.382" style="fill:#999999;stroke:#263238;stroke-linecap:round;stroke-linejoin:round;stroke-miterlimit:10;" width="3.563" height="3.563"/>
				
					<rect x="325.188" y="143.382" style="fill:#999999;stroke:#263238;stroke-linecap:round;stroke-linejoin:round;stroke-miterlimit:10;" width="3.563" height="3.563"/>
				
					<rect x="330.481" y="143.382" style="fill:#999999;stroke:#263238;stroke-linecap:round;stroke-linejoin:round;stroke-miterlimit:10;" width="3.563" height="3.563"/>
				
					<rect x="335.774" y="143.382" style="fill:#999999;stroke:#263238;stroke-linecap:round;stroke-linejoin:round;stroke-miterlimit:10;" width="3.563" height="3.563"/>
				
					<rect x="341.066" y="143.382" style="fill:#999999;stroke:#263238;stroke-linecap:round;stroke-linejoin:round;stroke-miterlimit:10;" width="3.563" height="3.563"/>
				
					<rect x="346.359" y="143.382" style="fill:#92E3A9;stroke:#263238;stroke-linecap:round;stroke-linejoin:round;stroke-miterlimit:10;" width="3.563" height="3.563"/>
				
					<rect x="351.651" y="143.382" style="fill:#92E3A9;stroke:#263238;stroke-linecap:round;stroke-linejoin:round;stroke-miterlimit:10;" width="3.563" height="3.563"/>
				<rect x="356.944" y="143.382" style="opacity:0.2;fill:#263238;" width="3.563" height="3.563"/>
				<rect x="362.236" y="143.382" style="opacity:0.2;fill:#263238;" width="3.563" height="3.563"/>
				<rect x="367.529" y="143.382" style="opacity:0.2;fill:#263238;" width="3.563" height="3.563"/>
			</g>
			<g>
				
					<rect x="304.018" y="155.392" style="fill:#999999;stroke:#263238;stroke-linecap:round;stroke-linejoin:round;stroke-miterlimit:10;" width="3.563" height="3.563"/>
				
					<rect x="309.311" y="155.392" style="fill:#999999;stroke:#263238;stroke-linecap:round;stroke-linejoin:round;stroke-miterlimit:10;" width="3.563" height="3.563"/>
				
					<rect x="314.603" y="155.392" style="fill:#999999;stroke:#263238;stroke-linecap:round;stroke-linejoin:round;stroke-miterlimit:10;" width="3.563" height="3.563"/>
				
					<rect x="319.896" y="155.392" style="fill:#999999;stroke:#263238;stroke-linecap:round;stroke-linejoin:round;stroke-miterlimit:10;" width="3.563" height="3.563"/>
				
					<rect x="325.188" y="155.392" style="fill:#999999;stroke:#263238;stroke-linecap:round;stroke-linejoin:round;stroke-miterlimit:10;" width="3.563" height="3.563"/>
				
					<rect x="330.481" y="155.392" style="fill:#999999;stroke:#263238;stroke-linecap:round;stroke-linejoin:round;stroke-miterlimit:10;" width="3.563" height="3.563"/>
				
					<rect x="335.774" y="155.392" style="fill:#999999;stroke:#263238;stroke-linecap:round;stroke-linejoin:round;stroke-miterlimit:10;" width="3.563" height="3.563"/>
				<rect x="341.066" y="155.392" style="opacity:0.2;fill:#263238;" width="3.563" height="3.563"/>
				<rect x="346.359" y="155.392" style="opacity:0.2;fill:#263238;" width="3.563" height="3.563"/>
				<rect x="351.651" y="155.392" style="opacity:0.2;fill:#263238;" width="3.563" height="3.563"/>
				<rect x="356.944" y="155.392" style="opacity:0.2;fill:#263238;" width="3.563" height="3.563"/>
				<rect x="362.236" y="155.392" style="opacity:0.2;fill:#263238;" width="3.563" height="3.563"/>
				<rect x="367.529" y="155.392" style="opacity:0.2;fill:#263238;" width="3.563" height="3.563"/>
			</g>
			<g>
				
					<rect x="304.018" y="191.424" style="fill:#999999;stroke:#263238;stroke-linecap:round;stroke-linejoin:round;stroke-miterlimit:10;" width="3.563" height="3.563"/>
				
					<rect x="309.311" y="191.424" style="fill:#999999;stroke:#263238;stroke-linecap:round;stroke-linejoin:round;stroke-miterlimit:10;" width="3.563" height="3.563"/>
				
					<rect x="314.603" y="191.424" style="fill:#999999;stroke:#263238;stroke-linecap:round;stroke-linejoin:round;stroke-miterlimit:10;" width="3.563" height="3.563"/>
				<rect x="319.896" y="191.424" style="opacity:0.2;fill:#263238;" width="3.563" height="3.563"/>
				<rect x="325.188" y="191.424" style="opacity:0.2;fill:#263238;" width="3.563" height="3.563"/>
				<rect x="330.481" y="191.424" style="opacity:0.2;fill:#263238;" width="3.563" height="3.563"/>
				<rect x="335.774" y="191.424" style="opacity:0.2;fill:#263238;" width="3.563" height="3.563"/>
				<rect x="341.066" y="191.424" style="opacity:0.2;fill:#263238;" width="3.563" height="3.563"/>
				<rect x="346.359" y="191.424" style="opacity:0.2;fill:#263238;" width="3.563" height="3.563"/>
				<rect x="351.651" y="191.424" style="opacity:0.2;fill:#263238;" width="3.563" height="3.563"/>
				<rect x="356.944" y="191.424" style="opacity:0.2;fill:#263238;" width="3.563" height="3.563"/>
				<rect x="362.236" y="191.424" style="opacity:0.2;fill:#263238;" width="3.563" height="3.563"/>
				<rect x="367.529" y="191.424" style="opacity:0.2;fill:#263238;" width="3.563" height="3.563"/>
			</g>
			<g>
				
					<rect x="304.018" y="179.413" style="fill:#999999;stroke:#263238;stroke-linecap:round;stroke-linejoin:round;stroke-miterlimit:10;" width="3.563" height="3.563"/>
				
					<rect x="309.311" y="179.413" style="fill:#999999;stroke:#263238;stroke-linecap:round;stroke-linejoin:round;stroke-miterlimit:10;" width="3.563" height="3.563"/>
				
					<rect x="314.603" y="179.413" style="fill:#999999;stroke:#263238;stroke-linecap:round;stroke-linejoin:round;stroke-miterlimit:10;" width="3.563" height="3.563"/>
				
					<rect x="319.896" y="179.413" style="fill:#999999;stroke:#263238;stroke-linecap:round;stroke-linejoin:round;stroke-miterlimit:10;" width="3.563" height="3.563"/>
				
					<rect x="325.188" y="179.413" style="fill:#999999;stroke:#263238;stroke-linecap:round;stroke-linejoin:round;stroke-miterlimit:10;" width="3.563" height="3.563"/>
				
					<rect x="330.481" y="179.413" style="fill:#999999;stroke:#263238;stroke-linecap:round;stroke-linejoin:round;stroke-miterlimit:10;" width="3.563" height="3.563"/>
				
					<rect x="335.774" y="179.413" style="fill:#999999;stroke:#263238;stroke-linecap:round;stroke-linejoin:round;stroke-miterlimit:10;" width="3.563" height="3.563"/>
				
					<rect x="341.066" y="179.413" style="fill:#999999;stroke:#263238;stroke-linecap:round;stroke-linejoin:round;stroke-miterlimit:10;" width="3.563" height="3.563"/>
				
					<rect x="346.359" y="179.413" style="fill:#92E3A9;stroke:#263238;stroke-linecap:round;stroke-linejoin:round;stroke-miterlimit:10;" width="3.563" height="3.563"/>
				
					<rect x="351.651" y="179.413" style="fill:#92E3A9;stroke:#263238;stroke-linecap:round;stroke-linejoin:round;stroke-miterlimit:10;" width="3.563" height="3.563"/>
				
					<rect x="356.944" y="179.413" style="fill:#92E3A9;stroke:#263238;stroke-linecap:round;stroke-linejoin:round;stroke-miterlimit:10;" width="3.563" height="3.563"/>
				
					<rect x="362.236" y="179.413" style="fill:#92E3A9;stroke:#263238;stroke-linecap:round;stroke-linejoin:round;stroke-miterlimit:10;" width="3.563" height="3.563"/>
				<rect x="367.529" y="179.413" style="opacity:0.2;fill:#263238;" width="3.563" height="3.563"/>
			</g>
			<g>
				
					<rect x="304.018" y="167.403" style="fill:#999999;stroke:#263238;stroke-linecap:round;stroke-linejoin:round;stroke-miterlimit:10;" width="3.563" height="3.563"/>
				
					<rect x="309.311" y="167.403" style="fill:#999999;stroke:#263238;stroke-linecap:round;stroke-linejoin:round;stroke-miterlimit:10;" width="3.563" height="3.563"/>
				
					<rect x="314.603" y="167.403" style="fill:#999999;stroke:#263238;stroke-linecap:round;stroke-linejoin:round;stroke-miterlimit:10;" width="3.563" height="3.563"/>
				
					<rect x="319.896" y="167.403" style="fill:#999999;stroke:#263238;stroke-linecap:round;stroke-linejoin:round;stroke-miterlimit:10;" width="3.563" height="3.563"/>
				
					<rect x="325.188" y="167.403" style="fill:#999999;stroke:#263238;stroke-linecap:round;stroke-linejoin:round;stroke-miterlimit:10;" width="3.563" height="3.563"/>
				<rect x="330.481" y="167.403" style="opacity:0.2;fill:#263238;" width="3.563" height="3.563"/>
				<rect x="335.774" y="167.403" style="opacity:0.2;fill:#263238;" width="3.563" height="3.563"/>
				<rect x="341.066" y="167.403" style="opacity:0.2;fill:#263238;" width="3.563" height="3.563"/>
				<rect x="346.359" y="167.403" style="opacity:0.2;fill:#263238;" width="3.563" height="3.563"/>
				<rect x="351.651" y="167.403" style="opacity:0.2;fill:#263238;" width="3.563" height="3.563"/>
				<rect x="356.944" y="167.403" style="opacity:0.2;fill:#263238;" width="3.563" height="3.563"/>
				<rect x="362.236" y="167.403" style="opacity:0.2;fill:#263238;" width="3.563" height="3.563"/>
				<rect x="367.529" y="167.403" style="opacity:0.2;fill:#263238;" width="3.563" height="3.563"/>
			</g>
			<path style="opacity:0.4;fill:#263238;" d="M176.44,148.91h-48.683c-0.28,0-0.507-0.227-0.507-0.507l0,0
				c0-0.28,0.227-0.507,0.507-0.507h48.683c0.28,0,0.507,0.227,0.507,0.507l0,0C176.947,148.683,176.72,148.91,176.44,148.91z"/>
			<path style="opacity:0.4;fill:#263238;" d="M179.679,160.92h-51.922c-0.28,0-0.507-0.227-0.507-0.507l0,0
				c0-0.28,0.227-0.507,0.507-0.507h51.922c0.28,0,0.507,0.227,0.507,0.507l0,0C180.186,160.693,179.959,160.92,179.679,160.92z"/>
			<path style="opacity:0.4;fill:#263238;" d="M147.29,172.93h-19.533c-0.28,0-0.507-0.227-0.507-0.507l0,0
				c0-0.28,0.227-0.507,0.507-0.507h19.533c0.28,0,0.507,0.227,0.507,0.507l0,0C147.797,172.703,147.57,172.93,147.29,172.93z"/>
			<path style="opacity:0.4;fill:#263238;" d="M163.484,184.941h-35.727c-0.28,0-0.507-0.227-0.507-0.507l0,0
				c0-0.28,0.227-0.507,0.507-0.507h35.727c0.28,0,0.507,0.227,0.507,0.507l0,0C163.992,184.714,163.765,184.941,163.484,184.941z"
				/>
			<path style="opacity:0.4;fill:#263238;" d="M163.484,196.951h-35.727c-0.28,0-0.507-0.227-0.507-0.507l0,0
				c0-0.28,0.227-0.507,0.507-0.507h35.727c0.28,0,0.507,0.227,0.507,0.507l0,0C163.992,196.724,163.765,196.951,163.484,196.951z"
				/>
			<path style="opacity:0.4;fill:#263238;" d="M277.581,148.91h-38.966c-0.28,0-0.507-0.227-0.507-0.507l0,0
				c0-0.28,0.227-0.507,0.507-0.507h38.966c0.28,0,0.507,0.227,0.507,0.507l0,0C278.088,148.683,277.861,148.91,277.581,148.91z"/>
			<path style="opacity:0.4;fill:#263238;" d="M261.386,160.92h-22.772c-0.28,0-0.507-0.227-0.507-0.507l0,0
				c0-0.28,0.227-0.507,0.507-0.507h22.772c0.28,0,0.507,0.227,0.507,0.507l0,0C261.893,160.693,261.666,160.92,261.386,160.92z"/>
			<path style="opacity:0.4;fill:#263238;" d="M261.386,172.93h-22.772c-0.28,0-0.507-0.227-0.507-0.507l0,0
				c0-0.28,0.227-0.507,0.507-0.507h22.772c0.28,0,0.507,0.227,0.507,0.507l0,0C261.893,172.703,261.666,172.93,261.386,172.93z"/>
			<path style="opacity:0.4;fill:#263238;" d="M285.678,184.941h-47.063c-0.28,0-0.507-0.227-0.507-0.507l0,0
				c0-0.28,0.227-0.507,0.507-0.507h47.063c0.28,0,0.507,0.227,0.507,0.507l0,0C286.185,184.714,285.958,184.941,285.678,184.941z"
				/>
			<path style="opacity:0.4;fill:#263238;" d="M285.678,196.951h-47.063c-0.28,0-0.507-0.227-0.507-0.507l0,0
				c0-0.28,0.227-0.507,0.507-0.507h47.063c0.28,0,0.507,0.227,0.507,0.507l0,0C286.185,196.724,285.958,196.951,285.678,196.951z"
				/>
		</g>
		<g>
			<g>
				<g>
					
						<ellipse transform="matrix(0.8095 -0.5872 0.5872 0.8095 -101.8162 177.6614)" style="fill:#999999;stroke:#263238;stroke-linecap:round;stroke-linejoin:round;stroke-miterlimit:10;" cx="222.83" cy="245.708" rx="27.678" ry="27.678"/>
					<path style="fill:#92E3A9;stroke:#263238;stroke-linecap:round;stroke-linejoin:round;stroke-miterlimit:10;" d="
						M227.914,229.956L227.914,229.956c-0.608-0.196-0.942-0.848-0.745-1.456l1.654-5.126c0.196-0.608,0.848-0.942,1.456-0.745l0,0
						c0.608,0.196,0.942,0.848,0.746,1.456l-1.654,5.126C229.174,229.818,228.522,230.152,227.914,229.956z"/>
				</g>
				<g style="opacity:0.4;">
					
						<circle style="fill:none;stroke:#263238;stroke-width:3;stroke-miterlimit:10;stroke-dasharray:0.9752,14.6287;" cx="222.83" cy="245.708" r="32.293"/>
				</g>
			</g>
			<path style="fill:#263238;" d="M159.295,286.006h-26.11c-0.56,0-1.015-0.454-1.015-1.015l0,0c0-0.56,0.454-1.015,1.015-1.015
				h26.11c0.56,0,1.015,0.454,1.015,1.015l0,0C160.309,285.552,159.855,286.006,159.295,286.006z"/>
			<path style="opacity:0.4;fill:#263238;" d="M157.625,288.738h-22.772c-0.28,0-0.507-0.227-0.507-0.507l0,0
				c0-0.28,0.227-0.507,0.507-0.507h22.772c0.28,0,0.507,0.227,0.507,0.507l0,0C158.133,288.511,157.906,288.738,157.625,288.738z"
				/>
			<path style="fill:#263238;" d="M235.885,286.006h-26.11c-0.56,0-1.015-0.454-1.015-1.015l0,0c0-0.56,0.454-1.015,1.015-1.015
				h26.11c0.56,0,1.015,0.454,1.015,1.015l0,0C236.9,285.552,236.445,286.006,235.885,286.006z"/>
			<path style="opacity:0.4;fill:#263238;" d="M234.216,288.738h-22.772c-0.28,0-0.507-0.227-0.507-0.507l0,0
				c0-0.28,0.227-0.507,0.507-0.507h22.772c0.28,0,0.507,0.227,0.507,0.507l0,0C234.723,288.511,234.496,288.738,234.216,288.738z"
				/>
			<g>
				<path style="opacity:0.5;fill:#92E3A9;" d="M281.035,289.688h100.122c1.789,0,3.238-1.45,3.238-3.238v-72.902
					c0-1.789-1.45-3.239-3.238-3.239H281.035c-1.788,0-3.238,1.45-3.238,3.239v72.902
					C277.797,288.238,279.247,289.688,281.035,289.688z"/>
				<g>
					<path style="fill:#999999;stroke:#263238;stroke-linecap:round;stroke-linejoin:round;stroke-miterlimit:10;" d="
						M373.667,229.225h-41.49c-1.026,0-1.858-0.832-1.858-1.858v-2.777c0-1.026,0.832-1.858,1.858-1.858h41.49
						c1.026,0,1.858,0.832,1.858,1.858v2.777C375.525,228.393,374.693,229.225,373.667,229.225z"/>
					<g>
						<polygon style="fill:#92E3A9;" points="370.879,224.732 372.427,227.224 373.975,224.732 						"/>
					</g>
					<path style="fill:#263238;" d="M350.23,226.993h-16.393c-0.56,0-1.015-0.454-1.015-1.015l0,0c0-0.56,0.454-1.015,1.015-1.015
						h16.393c0.56,0,1.015,0.454,1.015,1.015l0,0C351.244,226.538,350.79,226.993,350.23,226.993z"/>
					<path style="fill:#999999;stroke:#263238;stroke-linecap:round;stroke-linejoin:round;stroke-miterlimit:10;" d="
						M373.667,277.267h-41.49c-1.026,0-1.858-0.832-1.858-1.858v-2.777c0-1.026,0.832-1.858,1.858-1.858h41.49
						c1.026,0,1.858,0.832,1.858,1.858v2.777C375.525,276.435,374.693,277.267,373.667,277.267z"/>
					<g>
						<polygon style="fill:#92E3A9;" points="370.879,272.774 372.427,275.266 373.975,272.774 						"/>
					</g>
					<path style="fill:#263238;" d="M350.23,275.034h-16.393c-0.56,0-1.015-0.454-1.015-1.015l0,0c0-0.56,0.454-1.015,1.015-1.015
						h16.393c0.56,0,1.015,0.454,1.015,1.015l0,0C351.244,274.58,350.79,275.034,350.23,275.034z"/>
					<path style="fill:#999999;stroke:#263238;stroke-linecap:round;stroke-linejoin:round;stroke-miterlimit:10;" d="
						M373.667,241.235h-41.49c-1.026,0-1.858-0.832-1.858-1.858V236.6c0-1.026,0.832-1.858,1.858-1.858h41.49
						c1.026,0,1.858,0.832,1.858,1.858v2.777C375.525,240.403,374.693,241.235,373.667,241.235z"/>
					<g>
						<polygon style="fill:#92E3A9;" points="370.879,236.743 372.427,239.234 373.975,236.743 						"/>
					</g>
					<path style="fill:#263238;" d="M355.088,239.003h-21.252c-0.56,0-1.015-0.454-1.015-1.015l0,0c0-0.56,0.454-1.015,1.015-1.015
						h21.252c0.56,0,1.015,0.454,1.015,1.015l0,0C356.103,238.549,355.648,239.003,355.088,239.003z"/>
					<path style="fill:#999999;stroke:#263238;stroke-linecap:round;stroke-linejoin:round;stroke-miterlimit:10;" d="
						M373.667,253.246h-41.49c-1.026,0-1.858-0.832-1.858-1.858v-2.777c0-1.026,0.832-1.858,1.858-1.858h41.49
						c1.026,0,1.858,0.832,1.858,1.858v2.777C375.525,252.414,374.693,253.246,373.667,253.246z"/>
					<g>
						<polygon style="fill:#92E3A9;" points="370.879,248.753 372.427,251.245 373.975,248.753 						"/>
					</g>
					<path style="fill:#263238;" d="M350.23,251.014h-16.393c-0.56,0-1.015-0.454-1.015-1.015l0,0c0-0.56,0.454-1.015,1.015-1.015
						h16.393c0.56,0,1.015,0.454,1.015,1.015l0,0C351.244,250.559,350.79,251.014,350.23,251.014z"/>
					<path style="fill:#999999;stroke:#263238;stroke-linecap:round;stroke-linejoin:round;stroke-miterlimit:10;" d="
						M373.667,265.256h-41.49c-1.026,0-1.858-0.832-1.858-1.858v-2.777c0-1.026,0.832-1.858,1.858-1.858h41.49
						c1.026,0,1.858,0.832,1.858,1.858v2.777C375.525,264.424,374.693,265.256,373.667,265.256z"/>
					<g>
						<polygon style="fill:#92E3A9;" points="370.879,260.763 372.427,263.255 373.975,260.763 						"/>
					</g>
					<path style="fill:#263238;" d="M355.088,263.024h-21.252c-0.56,0-1.015-0.454-1.015-1.015l0,0c0-0.56,0.454-1.015,1.015-1.015
						h21.252c0.56,0,1.015,0.454,1.015,1.015l0,0C356.103,262.57,355.648,263.024,355.088,263.024z"/>
					<path style="fill:#263238;" d="M320.27,226.993h-32.588c-0.56,0-1.015-0.454-1.015-1.015l0,0c0-0.56,0.454-1.015,1.015-1.015
						h32.588c0.56,0,1.015,0.454,1.015,1.015l0,0C321.285,226.538,320.83,226.993,320.27,226.993z"/>
					<path style="fill:#263238;" d="M310.553,239.003h-22.871c-0.56,0-1.015-0.454-1.015-1.015l0,0c0-0.56,0.454-1.015,1.015-1.015
						h22.871c0.56,0,1.015,0.454,1.015,1.015l0,0C311.568,238.549,311.114,239.003,310.553,239.003z"/>
					<path style="fill:#263238;" d="M313.792,251.014h-26.11c-0.56,0-1.015-0.454-1.015-1.015l0,0c0-0.56,0.454-1.015,1.015-1.015
						h26.11c0.56,0,1.015,0.454,1.015,1.015l0,0C314.807,250.559,314.352,251.014,313.792,251.014z"/>
					<path style="fill:#263238;" d="M305.695,263.024h-18.013c-0.56,0-1.015-0.454-1.015-1.015l0,0c0-0.56,0.454-1.015,1.015-1.015
						h18.013c0.56,0,1.015,0.454,1.015,1.015l0,0C306.71,262.57,306.255,263.024,305.695,263.024z"/>
					<path style="fill:#263238;" d="M310.553,275.034h-22.871c-0.56,0-1.015-0.454-1.015-1.015l0,0c0-0.56,0.454-1.015,1.015-1.015
						h22.871c0.56,0,1.015,0.454,1.015,1.015l0,0C311.568,274.58,311.114,275.034,310.553,275.034z"/>
				</g>
			</g>
			<g>
				<g>
					
						<ellipse transform="matrix(0.1395 -0.9902 0.9902 0.1395 -117.4633 356.2477)" style="fill:#999999;stroke:#263238;stroke-linecap:round;stroke-linejoin:round;stroke-miterlimit:10;" cx="146.24" cy="245.708" rx="27.678" ry="27.678"/>
					<path style="fill:#92E3A9;stroke:#263238;stroke-linecap:round;stroke-linejoin:round;stroke-miterlimit:10;" d="
						M162.779,245.068L162.779,245.068c-0.025-0.638,0.473-1.176,1.111-1.201l5.382-0.208c0.638-0.025,1.176,0.473,1.201,1.111l0,0
						c0.025,0.638-0.473,1.176-1.111,1.201l-5.382,0.208C163.342,246.203,162.804,245.706,162.779,245.068z"/>
				</g>
				<g style="opacity:0.4;">
					
						<circle style="fill:none;stroke:#263238;stroke-width:3;stroke-miterlimit:10;stroke-dasharray:0.9752,14.6287;" cx="146.24" cy="245.708" r="32.293"/>
				</g>
			</g>
		</g>
		<g>
			<polyline style="fill:none;stroke:#263238;stroke-linecap:round;stroke-linejoin:round;stroke-miterlimit:10;" points="
				252.366,300.715 249.171,299.469 245.976,300.715 			"/>
			<polyline style="fill:none;stroke:#263238;stroke-linecap:round;stroke-linejoin:round;stroke-miterlimit:10;" points="
				252.366,303.144 249.171,301.898 245.976,303.144 			"/>
		</g>
		<g>
			<path style="fill:#92E3A9;stroke:#263238;stroke-linecap:round;stroke-linejoin:round;stroke-miterlimit:10;" d="
				M381.396,129.525h-264.45c-1.657,0-3-1.343-3-3v-11.495c0-1.657,1.343-3,3-3h264.45c1.657,0,3,1.343,3,3v11.495
				C384.396,128.182,383.053,129.525,381.396,129.525z"/>
			<g>
				<path style="fill:#263238;" d="M234.835,121.768v-1.981l-1.484-0.128c-0.088-0.313-0.211-0.611-0.367-0.89l0.958-1.139
					l-1.401-1.401l-1.139,0.958c-0.278-0.156-0.576-0.279-0.89-0.367l-0.128-1.484h-1.981l-0.128,1.484
					c-0.313,0.088-0.612,0.211-0.89,0.367l-1.139-0.958l-1.401,1.401l0.958,1.139c-0.156,0.278-0.279,0.576-0.367,0.89l-1.484,0.128
					v1.981l1.484,0.128c0.088,0.313,0.211,0.612,0.367,0.89l-0.958,1.139l1.401,1.401l1.139-0.958
					c0.278,0.156,0.576,0.279,0.89,0.367l0.128,1.484h1.981l0.128-1.484c0.313-0.088,0.612-0.211,0.89-0.367l1.139,0.958
					l1.401-1.401l-0.958-1.139c0.156-0.278,0.279-0.576,0.367-0.89L234.835,121.768z M229.394,123.08
					c-1.272,0-2.303-1.031-2.303-2.303c0-1.272,1.031-2.303,2.303-2.303c1.272,0,2.303,1.031,2.303,2.303
					C231.696,122.049,230.666,123.08,229.394,123.08z"/>
				<g>
					<path style="fill:#263238;" d="M239.617,116.031c1.419,0,2.148,0.848,2.148,2.333v0.292h-1.379v-0.384
						c0-0.663-0.265-0.915-0.729-0.915c-0.464,0-0.729,0.252-0.729,0.915c0,0.676,0.292,1.18,1.246,2.015
						c1.22,1.074,1.604,1.843,1.604,2.904c0,1.485-0.742,2.333-2.174,2.333c-1.432,0-2.174-0.849-2.174-2.333v-0.57h1.379v0.663
						c0,0.663,0.292,0.902,0.756,0.902c0.464,0,0.756-0.239,0.756-0.902c0-0.676-0.292-1.18-1.246-2.015
						c-1.22-1.074-1.604-1.843-1.604-2.904C237.47,116.88,238.199,116.031,239.617,116.031z"/>
					<path style="fill:#263238;" d="M244.07,120.048h2.002v1.326h-2.002v2.718h2.519v1.326h-3.978v-9.28h3.978v1.326h-2.519V120.048
						z"/>
					<path style="fill:#263238;" d="M247.063,116.137h4.507v1.326h-1.525v7.954h-1.458v-7.954h-1.525V116.137z"/>
					<path style="fill:#263238;" d="M251.78,116.137h4.507v1.326h-1.525v7.954h-1.458v-7.954h-1.525V116.137z"/>
					<path style="fill:#263238;" d="M256.923,116.137h1.458v9.28h-1.458V116.137z"/>
					<path style="fill:#263238;" d="M260.766,118.696h-0.026v6.721h-1.313v-9.28h1.83l1.471,5.555h0.027v-5.555h1.299v9.28h-1.498
						L260.766,118.696z"/>
					<path style="fill:#263238;" d="M267.285,120.247h2.042v2.943c0,1.485-0.742,2.333-2.175,2.333
						c-1.431,0-2.174-0.849-2.174-2.333v-4.826c0-1.485,0.743-2.333,2.174-2.333c1.432,0,2.175,0.848,2.175,2.333v0.901h-1.379
						v-0.994c0-0.663-0.292-0.915-0.755-0.915c-0.464,0-0.756,0.252-0.756,0.915v5.011c0,0.663,0.292,0.902,0.756,0.902
						c0.463,0,0.755-0.239,0.755-0.902v-1.71h-0.663V120.247z"/>
					<path style="fill:#263238;" d="M272.228,116.031c1.419,0,2.148,0.848,2.148,2.333v0.292h-1.379v-0.384
						c0-0.663-0.265-0.915-0.729-0.915c-0.464,0-0.729,0.252-0.729,0.915c0,0.676,0.292,1.18,1.246,2.015
						c1.22,1.074,1.604,1.843,1.604,2.904c0,1.485-0.742,2.333-2.174,2.333c-1.432,0-2.174-0.849-2.174-2.333v-0.57h1.378v0.663
						c0,0.663,0.292,0.902,0.756,0.902c0.464,0,0.756-0.239,0.756-0.902c0-0.676-0.292-1.18-1.246-2.015
						c-1.22-1.074-1.604-1.843-1.604-2.904C270.081,116.88,270.81,116.031,272.228,116.031z"/>
				</g>
			</g>
		</g>
		<g style="opacity:0.4;">
			<path style="fill:#FFFFFF;" d="M230.44,102.93L105.35,228.02V111.7c0-4.84,3.93-8.77,8.77-8.77H230.44z"/>
			<polygon style="fill:#FFFFFF;" points="271.79,102.93 105.35,269.37 105.35,262.68 265.1,102.93 			"/>
			<polygon style="fill:#FFFFFF;" points="339.6,102.93 136.5,306.03 134.41,306.03 337.5,102.93 			"/>
		</g>
	</g>
</g>
<g id="Right_hand">
	<g>
		<path style="opacity:0.3;fill-opacity:0.7;" d="M360.507,147.387c-7.001-0.442-8.856,11.568-8.856,23.578
			c0,12.01,3.984,19.777,5.293,24.021c1.309,4.244,1.229,18.288-0.841,23.925c-2.07,5.638-10.848,23.388-16.557,33.75
			c-5.709,10.362,2.304,41.853,6.813,49.859c4.509,8.006,28.416,15.549,33.685,25.027c5.269,9.478,2.871,12.168,7.683,19.2
			c4.812,7.032,27.641,31.666,40.226,75.789l10.912-149.763l-41.34-44.488L360.507,147.387z"/>
		<path style="fill:#FFFFFF;" d="M426.382,429.074c-0.118,0.147-0.178,0.22-0.178,0.22c0.011-0.009,0.308-0.134,0.838-0.352
			C426.785,428.992,426.557,429.045,426.382,429.074z M486.846,354.4c-0.763-1.271-1.491-2.497-2.192-3.69l0.001-0.01
			c-14.288-24.344-16.821-34.784-18.521-41.799c-0.828-3.394-1.481-6.072-3.083-9.227c-0.261-0.505-0.539-1.042-0.834-1.602
			c-1.727-3.291-4.094-7.788-5.385-13.263c-0.863-3.691,0.346-12.68,1.52-21.372c0.839-6.265,1.635-12.172,1.559-15.535
			l-0.027-1.192c-0.204-8.798-0.627-27.102-2.454-32.229c-1.76-4.927-3.53-5.706-6.744-7.112c-0.326-0.14-0.67-0.293-1.033-0.457
			c-1.214-0.54-3.252-1.673-5.612-2.986c-5.305-2.939-11.912-6.61-15.3-7.161c-4.474-0.733-8.847,0.027-9.559,0.162
			c-4.118-3.339-11.136-7.694-13.264-7.841c-2.146-0.159-7.459,1.373-8.346,1.629c-1.657-1.288-3.031-2.251-3.824-2.609
			c-3.047-1.376-8.186-1.193-9.119-1.144c-3.505-5.743-6.961-11.48-8.449-13.997c-2.668-4.503-9.984-20.871-12.161-25.768
			c-0.38-0.852-0.601-1.362-0.617-1.394c-0.023-0.063-0.077-0.11-0.135-0.137c-0.068-0.018-6.472-2.284-9.146,3.657
			c-2.738,6.055,0.534,19.637,3.949,24.623c1.653,2.406,6.053,12.156,10.514,22.235c0,0-0.001,0.01-0.011,0.009
			c-0.328,0.293-1.229,1.08-2.484,2.127c-3.588,3.011-9.995,8.087-13.538,9.23c-3.911,1.269-3.567,21.145-3.296,37.123
			c0.103,5.885,0.193,10.973,0.036,14.016c-0.153,2.842,2.241,6.285,5.9,10.012c0.017,0.022,0.026,0.033,0.045,0.046
			c3.875,3.934,9.182,8.193,14.387,12.379c9.191,7.368,18.683,14.994,19.667,20.351c0.73,4.037,2.531,9.795,6.945,14.359
			c4.908,5.056,22.495,81.938,27.999,106.114c1.018,4.485,1.623,7.147,1.654,7.221c0.02,0.002,0.195-0.027,0.495-0.091
			c3.508-4.35,60.422-74.337,60.373-74.343C486.874,354.665,486.912,354.519,486.846,354.4z M367.669,218.471
			c0.697-0.681,5.417-5.388,6.317-10.074c3.205,7.228,5.187,11.567,5.675,12.029c0.487,0.472,0.403,2.748,0.318,4.944
			c-0.074,1.945-0.154,4.021,0.045,5.787c-0.841,0.704-6.226,5.33-7.393,9.148l-4.306-5.366L367.669,218.471z"/>
		<g>
			<path style="opacity:0.4;fill:#92E3A9;" d="M383.29,225.56c1.476-6.288-6.043-12.567-14.717-29.372
				c-0.328,0.293-1.229,1.08-2.484,2.127c1.32,3.575,2.281,7.7,0.46,9.182c-3.465,2.824-4.805,2.914-4.654,5.994
				c0.161,3.082,4.175,24.922,2.485,29.976c-1.681,5.065,10.043,6.484,11.815,7.494c1.771,1.01-0.08-7.907,4.363-11.66
				C385.001,235.558,381.635,232.572,383.29,225.56z M372.63,240.306l-4.306-5.366l-0.655-16.468
				c0.697-0.681,5.417-5.388,6.317-10.074c3.205,7.228,5.187,11.567,5.675,12.029c0.487,0.472,0.403,2.748,0.318,4.944
				c-0.074,1.945-0.154,4.021,0.045,5.787C379.183,231.862,373.798,236.488,372.63,240.306z"/>
			<path style="opacity:0.4;fill:#92E3A9;" d="M424.234,421.944c-5.504-24.177-23.091-101.058-27.999-106.114
				c-4.413-4.564-6.214-10.322-6.945-14.359c-0.983-5.357-10.475-12.983-19.667-20.351c-5.205-4.186-10.511-8.444-14.387-12.379
				c9.043,7.511,31.197,23.037,35.225,23.131c4.177,0.113,4.531,16.907,11.302,21.303
				C408.236,317.374,434.442,391.289,424.234,421.944z"/>
			<path style="opacity:0.4;fill:#92E3A9;" d="M484.654,350.7c-12.269-3.329-23.265-28.321-23.886-34.42
				c-0.725-7.159-0.595-12.643-9.106-22.216c-8.51-9.582-3.419-14.778-3.419-14.778c0.678,3.215,6.436,8.243,6.436,8.243
				c-2.32-7.211,0.327-33.403,1.422-38.287c0.954-4.307,1.375-30.828-4.038-39.613c-6.293-3.935-5.7,2.735-10.634,2.389
				c-2.666-0.192-7.107-3.197-11.238-3.274c-3.82-0.06-3.846,5.145-14.613,0.145c-5.407-2.518-8.032,5.192-14.23,1.974
				c-9.328-4.826-15.657-22.606-21.805-27.903c-2.881-2.494-9.424-13.511-10.689-20.292c-0.987-5.247-7.934-0.366-11.224-6.053
				c-2.701-4.648-1.235-11.351,6.388-9.421c2.177,4.897,9.493,21.265,12.161,25.768c1.488,2.517,4.944,8.254,8.449,13.997
				c0.933-0.048,6.072-0.232,9.119,1.144c0.793,0.358,2.167,1.32,3.824,2.609c0.887-0.255,6.2-1.788,8.346-1.629
				c2.128,0.147,9.145,4.502,13.264,7.841c0.711-0.135,5.084-0.895,9.559-0.162c3.388,0.551,9.995,4.222,15.3,7.161
				c2.359,1.313,4.398,2.446,5.612,2.986c0.363,0.165,0.707,0.317,1.033,0.457c3.214,1.407,4.983,2.185,6.744,7.112
				c1.827,5.127,2.25,23.43,2.454,32.229l0.027,1.192c0.076,3.363-0.719,9.271-1.559,15.535c-1.173,8.692-2.382,17.682-1.52,21.372
				c1.291,5.475,3.658,9.972,5.385,13.263c0.295,0.56,0.572,1.097,0.834,1.602c1.602,3.156,2.255,5.833,3.083,9.227
				C467.833,315.916,470.367,326.356,484.654,350.7z"/>
		</g>
		<g>
			<path style="fill:none;stroke:#263238;stroke-linecap:round;stroke-linejoin:round;stroke-miterlimit:10;" d="M400.94,207.117
				c0,0-4.436-1.303-7.374-5.486c-2.939-4.184-14.419-23.181-17.598-28.542c-3.179-5.361-12.784-27.194-12.784-27.194
				s-6.231-2.285-8.848,3.522c-2.617,5.808,0.358,19.175,3.936,24.397c3.578,5.221,20.183,45.127,21.555,46.441
				c1.372,1.314-1.04,11.755,1.704,14.377"/>
			<path style="fill:none;stroke:#263238;stroke-linecap:round;stroke-linejoin:round;stroke-miterlimit:10;" d="M380.277,231.259
				c0,0-6.655,5.47-7.534,9.574l-4.656-5.807l-0.663-16.656c0,0,5.979-5.655,6.447-10.83"/>
			<path style="fill:none;stroke:#263238;stroke-linecap:round;stroke-linejoin:round;stroke-miterlimit:10;" d="M368.879,196.243
				c0,0-11.071,9.863-16.25,11.533c-5.178,1.67-2.532,39.885-3.102,50.917c-0.57,11.032,37.922,31.367,39.994,42.737
				c0.824,4.519,2.751,9.961,6.89,14.231c5.904,6.093,29.695,113.412,29.695,113.412"/>
			<path style="fill:none;stroke:#263238;stroke-linecap:round;stroke-linejoin:round;stroke-miterlimit:10;" d="M384.497,187.211
				c0,0,5.882-0.36,9.149,1.108c3.267,1.468,16.37,13.389,19.537,15.686c3.167,2.297,8.025,3.268,8.883,5.669"/>
			<path style="fill:none;stroke:#263238;stroke-linecap:round;stroke-linejoin:round;stroke-miterlimit:10;" d="M397.525,190.983
				c0,0,6.1-1.822,8.376-1.656c2.277,0.165,10.813,5.537,14.597,9.057c3.784,3.52,7.626,5.517,9.939,6.435"/>
			<path style="fill:none;stroke:#263238;stroke-linecap:round;stroke-linejoin:round;stroke-miterlimit:10;" d="M419.117,197.186
				c0,0,4.708-0.987,9.588-0.187c4.879,0.8,16.975,8.389,20.847,10.133s5.743,2.099,7.649,7.433
				c1.906,5.335,2.282,25.412,2.47,33.346c0.188,7.934-4.587,30.514-3.07,36.949c1.518,6.436,4.462,11.445,6.232,14.918
				c5.21,10.217,0.391,15.741,23.803,54.749"/>
			<path style="fill:none;stroke:#263238;stroke-linecap:round;stroke-linejoin:round;stroke-miterlimit:10;" d="M426.576,211.943
				c4.379,4.932,2.462,13.128,1.473,15.496c-0.988,2.368,0.874,12.54,1.178,17.936"/>
			<path style="fill:none;stroke:#263238;stroke-linecap:round;stroke-linejoin:round;stroke-miterlimit:10;" d="M394.941,212.323
				c8.852,1.263,10.951,7.642,11.037,11.671"/>
			<path style="fill:none;stroke:#263238;stroke-linecap:round;stroke-linejoin:round;stroke-miterlimit:10;" d="M433.749,208.026
				c2.664,0.131,8.952,5.103,9.45,12.053"/>
			<path style="fill:none;stroke:#263238;stroke-linecap:round;stroke-linejoin:round;stroke-miterlimit:10;" d="M367.424,218.37
				c0,0-0.864-3.932-2.138-4.469"/>
			<path style="fill:none;stroke:#263238;stroke-linecap:round;stroke-linejoin:round;stroke-miterlimit:10;" d="M368.087,235.026
				c0,0,0.745,4.376,1.635,6.781c0.889,2.404-0.702,5.797-0.702,5.797"/>
			<path style="fill:none;stroke:#263238;stroke-linecap:round;stroke-linejoin:round;stroke-miterlimit:10;" d="M372.743,240.833
				c-0.268,3.795,3.39,8.346,4.325,7.745"/>
		</g>
	</g>
</g>
<g id="Left_hand">
	<g>
		<path style="opacity:0.3;fill-opacity:0.7;" d="M164.294,228.184c5.285,2.647,0.185,30.456-8.399,37.819l-8.097,31.672
			l8.097,34.632l20.065-12.605c0,0,1.986-12.338,9.326-16.559c7.341-4.221,7.351,2.454,7.351,2.454s-7.835,19.478-7.351,26.709
			c0.484,7.231-13.089,20.626-19.49,30.28c-6.4,9.654-22.333,6.229-38.367,16.645c-16.034,10.416-63.026,59.969-63.026,59.969
			l30.168-122.953L164.294,228.184z"/>
		<g>
			<g>
				<path style="fill:#FFFFFF;" d="M173.353,308.912c-1.403,1.697-2.751,3.679-4.037,5.84c-0.651,1.079-1.279,2.203-1.89,3.365
					c-0.274,0.513-0.541,1.028-0.809,1.55c-0.031,0.068-0.062,0.136-0.101,0.202c-0.299,0.59-0.59,1.182-0.883,1.783
					c-0.033,0.076-0.075,0.158-0.117,0.24c-0.251,0.518-0.493,1.038-0.736,1.557c-0.277,0.603-0.554,1.207-0.823,1.812
					c-0.008-0.002-0.01,0.006-0.011,0.014c-0.248,0.543-0.486,1.081-0.716,1.619c-0.687,1.559-1.34,3.118-1.957,4.617
					c-0.595,1.438-1.156,2.834-1.685,4.154c-0.054,0.137-0.106,0.267-0.159,0.397c-0.136,0.327-0.263,0.656-0.388,0.969
					c-0.627,1.589-1.209,3.046-1.736,4.317c-0.038,0.1-0.083,0.197-0.139,0.302c-0.034,0.084-0.077,0.166-0.127,0.246
					c-0.792,1.471-2.334,2.923-4.354,4.365c-0.343,0.25-0.709,0.495-1.084,0.738c-1.04,0.69-2.195,1.372-3.416,2.056
					c-0.301,0.168-0.611,0.342-0.927,0.507c-0.748,0.404-1.512,0.805-2.299,1.201l-0.008-0.002
					c-9.051,4.577-20.098,8.697-22.926,11.763c-3.753,4.071-4.404,7.409-8.997,12.204c-0.002,0.008-0.01,0.006-0.019,0.012
					c-1.121,1.186-2.5,2.458-4.219,3.848c-5.809,4.71-19.311,29.831-27.639,46.017c-4.152,8.058-7.022,13.897-7.022,13.897
					l-57.472-26.983c0,0,30.179-41.878,31.692-49.006c1.513-7.129,5.891-14.378,5.891-14.378s-0.748-16.052,0.339-27.335
					c1.086-11.275,3.805-30.25,5.084-37.834c1.288-7.59,8.712-19.441,12.268-28.47c3.556-9.029,5.61-17.186,8.759-22.742
					c3.14-5.55,6.211-15.378,8.062-16.417c1.859-1.037,3.804,0.601,5.819,3.47c2.009,2.86-2.842,19.553-2.842,19.553
					c3.524-5.8,5.736-17.78,7.051-20.894c1.317-3.123,3.724-17.544,3.724-17.544s1.889-1.296,4.21-1.855
					c1.292-0.314,2.723-0.391,4.023,0.117c3.63,1.424,5.545,9.364,4.57,18.56c-0.967,9.198-6.138,28.919-6.138,28.919
					s0.002-0.008,0.013-0.022c0.438-0.66,12.128-18.451,14.985-22.786c2.9-4.417,7.894-21.783,8.785-22.902
					c0.654-0.821,4.709-2.841,7.876-0.878c1.164,0.719,2.209,1.992,2.914,4.054c2.627,7.668-4.957,24.915-6.005,28.293
					c-0.85,2.758-7.472,14.142-9.859,18.212c-0.01,0.006-0.011,0.014-0.021,0.02c-0.378,0.648-0.648,1.104-0.768,1.319
					c0.688-0.98,5.449-7.692,9.012-8.765c3.844-1.146,11.447-6.08,16.332-9.049c4.883-2.962,5.094-13.314,11.858-4.974
					c2.862,3.521,1.202,9.783-1.314,15.473c-2.524,5.689-14.514,15.925-14.514,15.925c-0.463,1.284-1.596,4.28-2.988,7.917
					c-0.056,0.145-0.111,0.291-0.169,0.444c-0.248,0.659-0.506,1.333-0.776,2.021c-0.352,0.919-0.719,1.867-1.086,2.816
					c-0.198,0.504-0.388,1.01-0.586,1.514c-0.232,0.588-0.455,1.17-0.686,1.75c-0.113,0.299-0.233,0.588-0.342,0.871
					c-0.034,0.084-0.061,0.169-0.093,0.245c-0.196,0.496-0.393,0.993-0.58,1.483c-0.118,0.281-0.226,0.556-0.335,0.839
					c-0.4,1.024-0.8,2.015-1.172,2.946c-0.044,0.09-0.082,0.19-0.119,0.289c-0.1,0.236-0.193,0.481-0.291,0.708
					c-0.195,0.488-0.386,0.961-0.572,1.41c-0.186,0.449-0.36,0.876-0.528,1.279c-0.757,1.81-1.35,3.124-1.65,3.64
					c-1.536,2.596,3.479,29.9,7.48,26.495c3.993-3.407,14.46-20.315,14.46-20.315c1.47-9.77,6.973-17.525,14.419-20.746l0.008,0.002
					c0.629-0.272,1.269-0.517,1.916-0.719c8.426-2.648,9.334,3.836,9.334,3.836C173.768,302.354,180.398,300.408,173.353,308.912z"
					/>
			</g>
			<g>
				<path style="opacity:0.4;fill:#92E3A9;" d="M109.167,245.664l-14.298,21.848c1.207-7.988,8.307-25.098,8.307-25.098
					c1.011-6.556,9.633-37.117,6.739-41.928c-1.084-1.132-2.172-1.893-3.203-2.418c1.292-0.314,2.723-0.391,4.023,0.117
					c3.63,1.424,5.545,9.364,4.57,18.56C114.338,225.943,109.167,245.664,109.167,245.664z"/>
				<path style="opacity:0.4;fill:#92E3A9;" d="M94.572,218.808l0.006,0.01c0.006,0.01,0.012,0.019,0.019,0.029
					c0.072,0.09,0.252,0.335,0.511,0.713c-0.103-0.452-0.218-0.882-0.363-1.294L94.572,218.808z"/>
				<path style="opacity:0.4;fill:#92E3A9;" d="M78.991,267.252c0,0,10.294-17.532,14.608-32.75
					c1.6-5.628,2.374-10.952,1.514-14.934l-0.006-0.01c-0.103-0.452-0.218-0.882-0.363-1.294l-0.173,0.543
					c-0.832-1.187-1.645-2.154-2.455-2.822c0.805,2.604,1.239,7.382-2.6,13.884C83.505,240.058,82.354,254.217,78.991,267.252z"/>
				<path style="opacity:0.4;fill:#92E3A9;" d="M144.596,320.687c5.679-4.591,10.271-17.627,16.269-24.261
					c0,0-0.194-11.837,11.991-21.236l-0.008-0.002c-7.446,3.22-12.95,10.975-14.419,20.746c0,0-10.468,16.908-14.46,20.315
					c-4.001,3.405-9.016-23.899-7.48-26.495c0.3-0.516,0.893-1.83,1.65-3.64c0.168-0.403,0.342-0.83,0.528-1.279
					c0.186-0.449,0.378-0.921,0.572-1.41c0.098-0.228,0.191-0.473,0.291-0.708c0.038-0.1,0.075-0.199,0.119-0.289
					c0.373-0.939,0.764-1.924,1.172-2.946c0.11-0.283,0.218-0.558,0.336-0.839c0.187-0.49,0.383-0.986,0.58-1.483
					c0.033-0.076,0.059-0.161,0.093-0.245c0.11-0.283,0.229-0.572,0.342-0.871c0.231-0.58,0.454-1.162,0.686-1.75
					c0.198-0.504,0.388-1.01,0.586-1.515c0.367-0.948,0.734-1.897,1.086-2.816c0.262-0.689,0.523-1.371,0.777-2.021
					c0.057-0.153,0.113-0.299,0.169-0.444c-0.546,1.051-10.538,20.361-14.322,24.458c-3.883,4.217-0.349,33.078,7.448,30.66
					C138.601,322.618,140.379,324.096,144.596,320.687z"/>
				<path style="opacity:0.4;fill:#92E3A9;" d="M54.58,320.8c-1.087,11.284-0.339,27.335-0.339,27.335s-4.378,7.249-5.891,14.378
					c-0.407,1.917-2.897,6.355-6.299,11.816c0.868-1.165,10.176-13.7,11.444-18.621c1.32-5.167,3.174-6.18,7.789-11.698
					c4.609-5.528,8.788-3.614,8.788-3.614s-2.681,16.218,4.142,6.963c6.825-9.262,10.923-21.082,12.543-65.645
					c0,0-2.961,4.826-6.018,20.749c-3.051,15.932-8.085,19.607-8.085,19.607s-4.376-15.497-4.683-34.56
					c0,0-3.752,18.532-4.898,27.129c-1.146,8.597-1.424-10.724-2.019-22.778c-0.563-11.311,0.405-15.286,3.756-22.297
					c-2.412,4.926-4.513,9.679-5.146,13.402C58.385,290.55,55.665,309.525,54.58,320.8z"/>
				<path style="opacity:0.4;fill:#92E3A9;" d="M113.008,374.741c-1.121,1.186-2.5,2.458-4.219,3.848
					c-5.809,4.71-19.311,29.831-27.639,46.017c1.67-7.087,4.673-17.062,9.71-25.934C99.871,382.78,108.771,378.601,113.008,374.741z
					"/>
				<path style="opacity:0.4;fill:#92E3A9;" d="M137.735,231.423c-0.85,2.758-7.472,14.142-9.859,18.212
					c-0.01,0.006-0.011,0.014-0.021,0.02c-3.049,3.483-11.215,20.548-13.229,23.051c-2.005,2.505-5.857,2.672-4.145-1.103
					c2.791-6.17,11.251-27.304,15.614-31.402c4.361-4.09,11.099-21.442,14.493-31.193c1.716-4.925,1.187-8.05,0.238-9.932
					c1.164,0.719,2.209,1.992,2.914,4.054C146.367,210.798,138.783,228.044,137.735,231.423z"/>
				<path style="opacity:0.4;fill:#92E3A9;" d="M152.433,233.159c-4.867,2.965-12.44,7.872-16.297,9.04
					c0.527-0.103,7.377-1.373,9.845,2.835c2.563,4.385,2.483,14.549,2.483,14.549s11.99-10.236,14.514-15.925
					c2.516-5.691,4.176-11.952,1.314-15.473C157.527,219.845,157.316,230.197,152.433,233.159z"/>
			</g>
			<g>
				<path style="fill:none;stroke:#263238;stroke-linecap:round;stroke-linejoin:round;stroke-miterlimit:10;" d="M74.133,438.506
					c0,0,25.958-52.867,34.659-59.917c8.701-7.05,8.554-10.986,13.234-16.063c4.68-5.077,31.915-13.05,35.277-21.178
					c3.363-8.128,9.007-23.922,16.053-32.432c7.046-8.51,0.411-6.566,10.754-30.607c0,0-0.915-6.487-9.337-3.838
					c-8.422,2.649-14.75,10.865-16.345,21.465c0,0-10.465,16.904-14.463,20.313c-3.998,3.408-9.008-23.899-7.474-26.497
					c1.534-2.598,10.41-25.904,11.971-30.17c0,0,11.997-10.237,14.514-15.925c2.517-5.688,4.175-11.954,1.319-15.473
					c-6.766-8.339-6.977,2.014-11.863,4.978c-4.886,2.963-12.483,7.9-16.329,9.048c-3.846,1.148-9.09,8.886-9.09,8.886
					s9.68-16.292,10.725-19.673c1.045-3.38,8.635-20.625,6.005-28.292c-2.63-7.667-9.894-4.301-10.787-3.178
					c-0.893,1.122-5.888,18.482-8.791,22.9c-2.903,4.419-14.993,22.81-14.993,22.81s5.167-19.717,6.138-28.916
					c0.97-9.199-0.947-17.138-4.574-18.563c-3.627-1.425-8.227,1.735-8.227,1.735s-2.408,14.428-3.724,17.546
					c-1.317,3.118-3.531,15.092-7.054,20.893c0,0,4.852-16.69,2.841-19.555c-2.012-2.865-3.956-4.505-5.813-3.467
					c-1.858,1.038-4.926,10.866-8.07,16.421c-3.144,5.555-5.202,13.709-8.757,22.74c-3.554,9.031-10.981,20.881-12.264,28.468
					c-1.283,7.587-4,26.56-5.085,37.84c-1.084,11.28-0.344,27.332-0.344,27.332s-4.376,7.246-5.889,14.375
					c-1.513,7.128-31.687,49.006-31.687,49.006"/>
				<path style="fill:none;stroke:#263238;stroke-linecap:round;stroke-linejoin:round;stroke-miterlimit:10;" d="M109.172,245.663
					c-2.902,3.641-12.076,19.868-14.299,21.852c-2.222,1.984-4.184,2.223-4.184,2.223"/>
				<path style="fill:none;stroke:#263238;stroke-linecap:round;stroke-linejoin:round;stroke-miterlimit:10;" d="M91.729,238.358
					c0,0-0.617,3.676-5.704,14.528c-5.087,10.852-7.371,15.443-9.157,17.684"/>
				<path style="fill:none;stroke:#263238;stroke-linecap:round;stroke-linejoin:round;stroke-miterlimit:10;" d="M127.011,251.096
					c-4.282,6.286-8.679,16.978-10.945,19.935c-2.265,2.958-3.652,3.318-3.652,3.318"/>
				<path style="fill:none;stroke:#263238;stroke-linecap:round;stroke-linejoin:round;stroke-miterlimit:10;" d="M118.578,266.691
					c0,0-2.981,1.153-4.401,3.214"/>
				<path style="fill:none;stroke:#263238;stroke-linecap:round;stroke-linejoin:round;stroke-miterlimit:10;" d="M143.964,316.249
					c0,0-3.842,8.845-9.406,6.518"/>
				<path style="fill:none;stroke:#263238;stroke-linecap:round;stroke-linejoin:round;stroke-miterlimit:10;" d="M136.49,289.752
					c0,0-4.526,10.524-3.363,15.846"/>
				<path style="fill:none;stroke:#263238;stroke-linecap:round;stroke-linejoin:round;stroke-miterlimit:10;" d="M90.388,277.075
					c0,0-4.532,1.297-3.869,8.97c0.664,7.673-2.613,36.995-2.613,36.995"/>
				<path style="fill:none;stroke:#263238;stroke-linecap:round;stroke-linejoin:round;stroke-miterlimit:10;" d="M71.483,279.742
					c-3.367,5.835-3.557,5.958-3.06,14.414c0.497,8.456-0.493,28.549-0.493,28.549"/>
				<path style="fill:none;stroke:#263238;stroke-linecap:round;stroke-linejoin:round;stroke-miterlimit:10;" d="M54.236,348.137
					c0,0,3.952-4.413,3.023-9.195"/>
				<path style="fill:none;stroke:#263238;stroke-linecap:round;stroke-linejoin:round;stroke-miterlimit:10;" d="M108.791,378.589
					c0,0-8.901,7.224-14.477,16.52"/>
			</g>
		</g>
	</g>
</g>
</svg>
